<?xml version="1.0" encoding="utf-8"?>
<!-- Generator: Adobe Illustrator 21.0.0, SVG Export Plug-In . SVG Version: 6.00 Build 0)  -->
<svg version="1.1" id="Layer_1" xmlns="http://www.w3.org/2000/svg" xmlns:xlink="http://www.w3.org/1999/xlink" x="0px" y="0px"
	 viewBox="0 0 100 100" style="enable-background:new 0 0 100 100;" xml:space="preserve">
<style type="text/css">
	.st0{fill:#010101;}
</style>
<g>
	<path class="st0" d="M50,95c11.579,0,23.041-4.444,31.813-13.217c17.544-17.544,17.544-46.082,0-63.626l0,0
		c-17.544-17.544-46.082-17.544-63.626,0s-17.544,46.082,0,63.626C26.959,90.556,38.421,95,50,95z M22.281,22.251
		C29.883,14.649,39.941,10.789,50,10.789s20.117,3.86,27.719,11.462c15.322,15.322,15.322,40.117,0,55.439
		c-15.321,15.322-40.117,15.322-55.438,0S6.959,37.573,22.281,22.251z"/>
	<path class="st0" d="M34.211,70.438c0.819,0,1.521-0.351,2.105-0.935l15.205-16.491c0.468-0.585,0.819-1.286,0.819-1.988V28.918
		c0-1.638-1.286-2.924-2.924-2.924s-2.924,1.287-2.924,2.924v21.053L31.988,65.526c-1.052,1.17-1.052,3.041,0.117,4.093
		C32.69,70.204,33.509,70.438,34.211,70.438z"/>
</g>
</svg>
