<?xml version="1.0" encoding="utf-8"?>
<!-- Generator: Adobe Illustrator 21.0.0, SVG Export Plug-In . SVG Version: 6.00 Build 0)  -->
<svg version="1.1" id="Layer_1" xmlns="http://www.w3.org/2000/svg" xmlns:xlink="http://www.w3.org/1999/xlink" x="0px" y="0px"
	 viewBox="0 0 100 100" style="enable-background:new 0 0 100 100;" xml:space="preserve">
<style type="text/css">
	.st0{fill:#010101;}
</style>
<g>
	<g transform="translate(-146.000000, -666.000000)">
		<g transform="translate(146.000000, 666.000000)">
			<path class="st0" d="M89.324,30.105l-0.191,0.075c-0.351,0.138-0.702,0.215-1.05,0.261c-0.124,0.017-0.249,0.032-0.377,0.038
				c-0.145,0.006-0.289,0.006-0.432-0.001c-0.087-0.004-0.171-0.017-0.255-0.025c-0.986-0.118-1.892-0.564-2.593-1.233
				c-0.135-0.127-0.269-0.256-0.386-0.397c-0.109-0.132-0.201-0.278-0.295-0.422c-0.09-0.137-0.184-0.272-0.258-0.417
				c-0.092-0.181-0.158-0.377-0.223-0.57c-0.045-0.127-0.1-0.25-0.133-0.381c-0.081-0.332-0.131-0.676-0.131-1.032
				s0.05-0.7,0.131-1.033l0,0c0.031-0.127,0.089-0.247,0.131-0.373c0.068-0.197,0.133-0.393,0.226-0.578
				c0.074-0.143,0.167-0.276,0.255-0.411c0.094-0.145,0.189-0.292,0.3-0.426c0.115-0.141,0.247-0.269,0.382-0.394
				c0.708-0.675,1.623-1.125,2.619-1.237c0.072-0.007,0.142-0.018,0.216-0.023c0.152-0.009,0.305-0.009,0.457-0.001
				c0.117,0.006,0.231,0.019,0.345,0.035c0.354,0.045,0.713,0.123,1.071,0.263l0.191,0.075C90.897,22.597,92,24.169,92,26.001
				S90.897,29.403,89.324,30.105L89.324,30.105z M71,38c-6.616,0-12-5.383-12-12s5.384-12,12-12c4.707,0,8.978,2.792,10.911,7.037
				c-0.025,0.027-0.042,0.06-0.066,0.088c-0.01,0.012-0.018,0.027-0.028,0.039c-0.244,0.285-0.474,0.58-0.672,0.901
				c-0.004,0.006-0.01,0.012-0.015,0.018c-0.057,0.092-0.099,0.191-0.152,0.283c-0.006,0.012-0.01,0.024-0.017,0.035
				c-0.156,0.28-0.309,0.561-0.428,0.863c-0.002,0.006-0.006,0.01-0.007,0.015c-0.073,0.186-0.117,0.38-0.175,0.57
				c-0.003,0.009-0.005,0.018-0.007,0.026c-0.069,0.235-0.153,0.462-0.199,0.705c-0.002,0.003-0.003,0.006-0.003,0.009
				c-0.09,0.462-0.141,0.933-0.141,1.411c0,0.479,0.051,0.95,0.141,1.411c0,0.003,0.001,0.004,0.003,0.007
				c0.046,0.244,0.131,0.474,0.201,0.71c0.003,0.009,0.004,0.016,0.007,0.025c0.057,0.189,0.101,0.383,0.174,0.565
				c0.001,0.006,0.005,0.01,0.007,0.016c0.118,0.301,0.272,0.582,0.426,0.863c0.007,0.01,0.01,0.022,0.016,0.033
				c0.054,0.095,0.096,0.193,0.155,0.286c0.003,0.006,0.009,0.01,0.014,0.018c0.198,0.318,0.425,0.611,0.666,0.895
				c0.01,0.01,0.018,0.024,0.029,0.036c0.027,0.031,0.045,0.066,0.072,0.098C79.977,35.208,75.707,38,71,38L71,38z M53,24.5
				c0,0.828-0.672,1.5-1.5,1.5c-0.828,0-1.5-0.672-1.5-1.5v-6c0-0.828,0.672-1.5,1.5-1.5c0.828,0,1.5,0.672,1.5,1.5V24.5z M95,26
				c0-2.907-1.68-5.404-4.104-6.648C88.059,10.873,79.985,5,71,5C65.79,5,58.175,8.941,56.942,9.596l-9.457,2.553
				C45.466,12.485,44,14.214,44,16.262v3.918c-3.643,0.428-7.045,1.621-10.046,3.415l4.707,7.701
				c1.623-0.961,3.423-1.649,5.339-2.009v6.45c0,2.047,1.465,3.777,3.34,4.083l9.602,2.583c1.236,0.657,8.848,4.596,14.058,4.596
				c8.985,0,17.059-5.872,19.896-14.352C93.32,31.404,95,28.907,95,26L95,26z"/>
			<path class="st0" d="M30.964,81.911c-0.024-0.021-0.053-0.036-0.078-0.057c-0.012-0.012-0.027-0.019-0.039-0.03
				c-0.291-0.249-0.59-0.482-0.915-0.682c-0.007-0.004-0.012-0.01-0.018-0.014c-0.085-0.054-0.177-0.092-0.264-0.141
				c-0.012-0.007-0.025-0.012-0.037-0.019c-0.285-0.159-0.571-0.314-0.879-0.435c-0.004-0.001-0.01-0.006-0.015-0.007
				c-0.18-0.07-0.367-0.112-0.552-0.169c-0.009-0.003-0.018-0.005-0.027-0.007c-0.24-0.072-0.471-0.157-0.72-0.206
				c-0.003,0-0.006-0.001-0.009-0.001C26.948,80.05,26.477,80,26,80c-0.479,0-0.95,0.05-1.41,0.141
				c-0.003,0-0.006,0.001-0.009,0.001c-0.249,0.048-0.482,0.133-0.72,0.206c-0.009,0.003-0.018,0.004-0.027,0.007
				c-0.184,0.057-0.372,0.099-0.552,0.169c-0.006,0.001-0.01,0.006-0.015,0.007c-0.308,0.121-0.594,0.276-0.879,0.435
				c-0.012,0.007-0.025,0.012-0.037,0.019c-0.087,0.05-0.179,0.087-0.264,0.141c-0.006,0.003-0.01,0.009-0.018,0.014
				c-0.326,0.201-0.625,0.433-0.915,0.682c-0.012,0.01-0.027,0.018-0.041,0.03c-0.024,0.021-0.053,0.036-0.076,0.057
				c-4.245-1.934-7.037-6.206-7.037-10.911c0-6.618,5.383-12,12-12s12,5.382,12,12C38,75.705,35.209,79.977,30.964,81.911
				L30.964,81.911z M21.895,89.324l-0.075-0.191c-0.105-0.268-0.183-0.537-0.235-0.807C21.534,88.058,21.5,87.782,21.5,87.5
				c0-0.279,0.033-0.549,0.083-0.813c0.015-0.082,0.036-0.162,0.056-0.242c0.045-0.186,0.102-0.367,0.169-0.544
				c0.03-0.078,0.057-0.158,0.092-0.234c0.104-0.231,0.221-0.456,0.361-0.666l0,0l0.3-0.36c0.637-0.766,1.485-1.287,2.412-1.512
				c0.004-0.001,0.01-0.004,0.016-0.004c0.016-0.006,0.033-0.012,0.051-0.017C25.353,83.037,25.675,83,26,83s0.647,0.038,0.96,0.108
				c0.009,0.001,0.016,0.004,0.025,0.007c0.015,0.003,0.03,0.01,0.045,0.013c0.926,0.226,1.772,0.747,2.409,1.512l0.3,0.36l0,0
				c0.14,0.21,0.258,0.434,0.361,0.666c0.035,0.077,0.061,0.156,0.092,0.234c0.067,0.177,0.124,0.358,0.169,0.544
				c0.019,0.08,0.041,0.159,0.056,0.242c0.05,0.264,0.083,0.534,0.083,0.813c0,0.282-0.033,0.558-0.084,0.827
				c-0.053,0.27-0.132,0.539-0.235,0.807l-0.075,0.191C29.404,90.896,27.83,92,26,92C24.169,92,22.597,90.896,21.895,89.324
				L21.895,89.324z M35,51.5c0,0.828-0.672,1.5-1.5,1.5h-6c-0.828,0-1.5-0.672-1.5-1.5c0-0.83,0.672-1.5,1.5-1.5h6
				C34.328,50,35,50.671,35,51.5L35,51.5z M39.851,47.483c-0.336-2.017-2.066-3.483-4.113-3.483h-5.16
				c0.114-1.191,0.354-2.35,0.709-3.462l-7.506-5.505c-1.254,2.769-2.007,5.794-2.199,8.967h-5.32c-2.048,0-3.777,1.465-4.083,3.341
				l-2.583,9.601C8.939,58.178,5,65.791,5,71c0,8.985,5.872,17.059,14.352,19.896C20.595,93.32,23.093,95,26,95
				s5.404-1.68,6.648-4.104C41.128,88.06,47,79.985,47,71c0-5.209-3.94-12.825-4.597-14.058L39.851,47.483z"/>
			<path class="st0" d="M36.223,33.06l-4.742-7.758c-2.511,1.937-4.645,4.324-6.291,7.044l7.308,5.36
				C33.454,35.944,34.718,34.371,36.223,33.06"/>
		</g>
	</g>
</g>
</svg>
