<?xml version="1.0" encoding="utf-8"?>
<!-- Generator: Adobe Illustrator 21.0.0, SVG Export Plug-In . SVG Version: 6.00 Build 0)  -->
<svg version="1.1" id="Layer_1" xmlns="http://www.w3.org/2000/svg" xmlns:xlink="http://www.w3.org/1999/xlink" x="0px" y="0px"
	 viewBox="0 0 100 100" style="enable-background:new 0 0 100 100;" xml:space="preserve">
<style type="text/css">
	.st0{fill:#010101;}
</style>
<path class="st0" d="M31.119,5c-2.787,0-5.215,1.708-5.215,4.406c0,4.765,7.373,12.498,8.811,12.498h30.57
	c1.259,0,4.585-3.956,5.394-5.035c1.349-1.888,3.416-4.495,3.416-7.463C74.096,6.169,71.218,5,68.072,5
	c-6.564,0-12.587,6.024-18.432,6.024C45.325,11.024,38.671,5,31.119,5z M35.974,24.69c-1.888,0-2.877,0.899-2.877,2.787
	c0,1.888,0.989,2.877,2.877,2.877h28.052c3.866,0,3.866-5.665,0-5.665H35.974z M34.715,33.142c-1.618,0-7.732,6.653-8.811,8.002
	c-1.259,1.708-2.427,3.057-3.596,4.855c-5.125,7.732-11.688,20.23-11.688,30.929v2.787C10.619,91.853,21.409,95,33.546,95h32.907
	c12.228,0,22.927-3.147,22.927-15.285c0-13.486-6.473-29.041-15.195-38.661c-4.316-4.855-2.967-3.057-6.384-6.384
	c-0.899-0.899-1.349-1.528-2.967-1.528C64.835,33.142,34.715,33.142,34.715,33.142z M47.572,38.357h4.855v4.406
	c2.877,0.27,5.125,1.259,6.744,2.877c1.528,1.618,3.506,3.686,3.686,6.383c-2.158,0.54-4.226,1.888-6.384,2.427
	c-0.809-1.439-0.989-2.337-2.157-3.596c-4.046-4.316-8.721-0.989-8.721,1.978c0,6.653,9.98,5.035,15.734,11.149
	c5.664,5.844,2.967,19.78-8.901,19.78v6.024h-4.855c0-6.563,0.45-5.575-1.528-6.114c-2.427-0.629-3.597-0.54-6.024-2.787
	c-1.798-1.709-4.046-4.675-4.046-8.002c2.607-0.18,4.406-1.529,7.193-1.529c0.629,7.103,12.497,8.901,12.497,0.719
	c0-6.653-18.521-3.327-18.521-17.622c0-6.384,4.495-11.149,10.43-11.688L47.572,38.357L47.572,38.357z"/>
</svg>
