<?xml version="1.0" encoding="utf-8"?>
<!-- Generator: Adobe Illustrator 21.0.0, SVG Export Plug-In . SVG Version: 6.00 Build 0)  -->
<svg version="1.1" id="Layer_1" xmlns="http://www.w3.org/2000/svg" xmlns:xlink="http://www.w3.org/1999/xlink" x="0px" y="0px"
	 viewBox="0 0 100 100" style="enable-background:new 0 0 100 100;" xml:space="preserve">
<style type="text/css">
	.st0{fill:#010101;}
</style>
<g>
	<path class="st0" d="M89.381,27.415c-3.283-5.547-12.34-6.793-23.887-4.076C62.098,12.132,56.437,5,49.985,5
		s-12.113,7.132-15.51,18.34c-11.547-2.604-20.604-1.358-23.887,4.076c-1.358,2.377-1.585,5.094-0.792,8.377
		c1.132,4.302,4.415,9.283,9.057,14.151c-4.755,4.868-7.924,9.849-9.057,14.151c-0.906,3.283-0.566,6,0.792,8.378
		c2.151,3.736,6.906,5.547,13.246,5.547c3.17,0,6.793-0.453,10.641-1.359C37.871,87.868,43.532,95,49.985,95
		s12.113-7.132,15.51-18.34c3.849,0.906,7.472,1.359,10.641,1.359c6.34,0,11.094-1.811,13.246-5.547
		c1.359-2.377,1.585-5.095,0.792-8.378c-1.132-4.302-4.415-9.283-9.057-14.151c4.755-4.868,7.924-9.849,9.057-14.151
		C91.079,32.51,90.853,29.679,89.381,27.415z M49.985,8.849c4.868,0,8.944,6.453,11.66,15.396c-3.736,1.132-7.698,2.604-11.66,4.302
		c-4.075-1.811-7.924-3.283-11.66-4.302C41.041,15.189,45.117,8.849,49.985,8.849z M65.268,49.944c0,2.83-0.113,5.66-0.34,8.491
		c-2.264,1.585-4.755,3.056-7.245,4.528c-2.49,1.358-4.981,2.717-7.698,3.963c-2.604-1.133-5.208-2.604-7.698-3.963
		c-2.604-1.472-4.868-2.943-7.245-4.528c-0.339-2.83-0.339-5.66-0.339-8.491c0-2.83,0.113-5.66,0.339-8.491
		c2.264-1.585,4.755-3.057,7.245-4.528c2.491-1.358,4.981-2.717,7.698-3.962c2.604,1.132,5.208,2.604,7.698,3.962
		c2.604,1.472,4.868,2.943,7.245,4.528C65.155,44.283,65.268,47.114,65.268,49.944z M69.117,44.396
		c2.377,1.811,4.528,3.623,6.453,5.547c-1.925,1.925-4.076,3.736-6.453,5.547c0.113-1.811,0.113-3.622,0.113-5.547
		C69.117,48.019,69.117,46.208,69.117,44.396z M64.249,63.529c-0.339,2.83-0.906,5.66-1.585,8.151
		c-2.604-0.792-5.208-1.698-7.924-2.717c1.585-0.792,3.17-1.698,4.868-2.604C61.192,65.453,62.777,64.548,64.249,63.529z
		 M45.117,68.963c-2.604,1.133-5.321,1.925-7.925,2.717c-0.566-2.604-1.132-5.434-1.585-8.151c1.585,1.019,3.057,1.925,4.755,2.83
		C42.06,67.378,43.645,68.17,45.117,68.963z M30.852,55.491c-2.377-1.811-4.528-3.622-6.453-5.547
		c1.925-1.925,4.075-3.736,6.453-5.547c-0.113,1.811-0.113,3.623-0.113,5.547C30.852,51.868,30.852,53.68,30.852,55.491z
		 M35.72,36.359c0.339-2.83,0.906-5.66,1.585-8.151c2.604,0.792,5.208,1.698,7.924,2.717c-1.585,0.792-3.17,1.698-4.868,2.604
		C38.777,34.434,37.192,35.34,35.72,36.359z M59.494,33.529c-1.585-0.906-3.17-1.811-4.868-2.604
		c2.604-1.132,5.321-1.925,7.924-2.717c0.566,2.604,1.133,5.434,1.585,8.151C62.777,35.34,61.192,34.434,59.494,33.529z
		 M13.871,29.34c1.472-2.604,4.868-3.623,9.396-3.623c2.943,0,6.34,0.453,10.075,1.359c-0.906,3.736-1.585,7.811-2.038,12.227
		c-3.623,2.604-6.906,5.208-9.736,7.924c-4.075-4.415-7.019-8.717-8.038-12.34C12.966,32.51,13.079,30.811,13.871,29.34z
		 M13.871,70.547c-0.792-1.358-0.906-3.17-0.339-5.434c1.019-3.736,3.849-8.038,8.038-12.34c2.83,2.604,6.113,5.321,9.736,7.924
		c0.339,4.302,1.132,8.491,2.038,12.227C24.06,75.076,16.362,74.736,13.871,70.547z M49.985,91.038
		c-4.868,0-8.944-6.453-11.66-15.396c3.736-1.133,7.698-2.604,11.66-4.302c4.076,1.811,7.924,3.283,11.66,4.302
		C58.928,84.698,54.853,91.038,49.985,91.038z M86.098,70.547c-2.49,4.189-10.076,4.415-19.472,2.264
		c0.906-3.736,1.585-7.811,2.038-12.226c3.623-2.604,6.906-5.208,9.736-7.924c4.076,4.415,7.019,8.717,8.038,12.34
		C87.004,67.378,86.89,69.076,86.098,70.547z M86.324,34.774c-1.019,3.736-3.849,8.038-8.038,12.34
		c-2.83-2.604-6.113-5.321-9.736-7.924c-0.34-4.302-1.133-8.491-2.038-12.227c3.736-0.906,7.132-1.358,10.076-1.358
		c4.528,0,7.924,1.132,9.396,3.623C86.89,30.811,87.004,32.51,86.324,34.774z"/>
	<path class="st0" d="M49.985,42.585c-4.302,0-7.924,3.396-7.924,7.358s3.509,7.358,7.924,7.358s7.924-3.396,7.924-7.358
		S54.287,42.585,49.985,42.585z M49.985,53.34c-2.151,0-3.962-1.585-3.962-3.396c0-1.811,1.811-3.396,3.962-3.396
		c2.151,0,3.962,1.585,3.962,3.396C53.947,51.755,52.135,53.34,49.985,53.34z"/>
</g>
</svg>
