<?xml version="1.0" encoding="utf-8"?>
<!-- Generator: Adobe Illustrator 21.0.0, SVG Export Plug-In . SVG Version: 6.00 Build 0)  -->
<svg version="1.1" id="Layer_1" xmlns="http://www.w3.org/2000/svg" xmlns:xlink="http://www.w3.org/1999/xlink" x="0px" y="0px"
	 viewBox="0 0 100 100" style="enable-background:new 0 0 100 100;" xml:space="preserve">
<style type="text/css">
	.st0{fill:#010101;}
</style>
<g>
	<path class="st0" d="M5,12.546C5,9.916,5,7.517,5,5c5.58,0,11.106,0,16.805,0c1.056,4.444,2.193,8.924,3.152,13.448
		c0.299,1.411,0.868,1.723,2.122,1.721c21.875-0.037,43.75-0.027,65.626-0.026c0.695,0,1.39,0,2.295,0
		c-0.163,0.8-0.257,1.44-0.425,2.057c-4.034,14.799-8.098,29.589-12.08,44.404c-0.385,1.431-0.969,1.778-2.293,1.774
		c-16.377-0.049-32.754-0.047-49.131-0.003c-1.308,0.003-1.9-0.284-2.247-1.784c-4.004-17.318-8.119-34.607-12.13-51.923
		c-0.372-1.608-0.897-2.251-2.528-2.165C11.193,12.658,8.208,12.546,5,12.546z"/>
	<path class="st0" d="M42.409,81.019c3.561,0.018,6.497,3.133,6.516,6.913c0.019,3.876-2.923,7.052-6.549,7.067
		c-3.64,0.016-6.574-3.123-6.563-7.02C35.824,84.045,38.709,81.001,42.409,81.019z"/>
	<path class="st0" d="M70.281,81.03c3.702-0.011,6.583,3.045,6.574,6.971C76.846,91.83,73.97,94.962,70.429,95
		c-3.637,0.038-6.647-3.08-6.686-6.925C63.704,84.205,66.642,81.04,70.281,81.03z"/>
	<rect x="29.64" y="71.551" class="st0" width="52.058" height="4.832"/>
</g>
</svg>
