<?xml version="1.0" encoding="utf-8"?>
<!-- Generator: Adobe Illustrator 21.0.0, SVG Export Plug-In . SVG Version: 6.00 Build 0)  -->
<svg version="1.1" id="Layer_1" xmlns="http://www.w3.org/2000/svg" xmlns:xlink="http://www.w3.org/1999/xlink" x="0px" y="0px"
	 viewBox="0 0 100 100" style="enable-background:new 0 0 100 100;" xml:space="preserve">
<style type="text/css">
	.st0{fill:#010101;}
</style>
<g>
	<path class="st0" d="M90.345,76.896h-7.242v-39.31h7.242v-9.31H10.172v9.31h5.69v39.31h-5.69v8.793H5V95h90v-9.311h-4.655
		L90.345,76.896L90.345,76.896z M44.827,76.896v-39.31h9.827v39.31L44.827,76.896L44.827,76.896z M73.793,76.896h-9.828v-39.31
		h9.828V76.896z M25.172,37.586H35v39.31h-9.828L25.172,37.586L25.172,37.586z"/>
	<polygon class="st0" points="95,16.379 95,16.379 95,16.379 95,16.379 50,5 5,16.379 5,16.379 5,16.379 5,16.379 5,16.379 
		5,25.689 95,25.689 	"/>
</g>
</svg>
