<?xml version="1.0" encoding="utf-8"?>
<!-- Generator: Adobe Illustrator 21.0.0, SVG Export Plug-In . SVG Version: 6.00 Build 0)  -->
<svg version="1.1" id="Layer_1" xmlns="http://www.w3.org/2000/svg" xmlns:xlink="http://www.w3.org/1999/xlink" x="0px" y="0px"
	 viewBox="0 0 100 100" style="enable-background:new 0 0 100 100;" xml:space="preserve">
<style type="text/css">
	.st0{fill:#010101;}
</style>
<path class="st0" d="M42.578,90.404v-5.89c-4.465-0.95-8.835-2.66-12.825-5.32l-4.18,4.085c-1.52,1.52-3.895,1.425-5.32,0
	l-4.465-4.56c-1.52-1.52-1.425-3.895,0-5.32l4.18-4.085c-2.66-3.99-4.37-8.36-5.225-12.825h-5.89c-2.09,0-3.8-1.71-3.8-3.8v-6.365
	c0-2.09,1.71-3.8,3.8-3.8h5.89c0.95-4.465,2.66-8.835,5.32-12.825l-4.085-4.18c-1.52-1.52-1.425-3.895,0-5.32l4.56-4.465
	c1.52-1.52,3.895-1.425,5.32,0l4.085,4.18c3.99-2.66,8.36-4.37,12.825-5.225V8.8c0-2.09,1.71-3.8,3.8-3.8h6.365
	c2.09,0,3.8,1.71,3.8,3.8v5.89c4.465,0.95,8.835,2.66,12.825,5.32l4.18-4.085c1.52-1.52,3.895-1.425,5.32,0l4.465,4.56
	c1.52,1.52,1.425,3.895,0,5.32l-4.181,4.085c2.66,3.99,4.37,8.36,5.225,12.825h5.89c2.09,0,3.8,1.71,3.8,3.8v6.365
	c0,2.09-1.71,3.8-3.8,3.8h-5.89c-0.76,3.895-2.185,7.695-4.275,11.21l-5.795-5.795c2.185-4.37,3.23-9.405,2.85-14.345
	c-0.475-6.65-3.325-13.015-8.075-17.765c-5.225-5.225-12.255-8.17-19.665-8.17s-14.345,2.85-19.665,8.17
	c-5.225,5.225-8.17,12.255-8.17,19.665s2.85,14.345,8.17,19.665c5.225,5.225,12.255,8.17,19.665,8.17
	c4.37,0,8.645-1.045,12.445-2.945l5.795,5.795c-3.61,2.09-7.41,3.61-11.4,4.37v5.89c0,2.09-1.71,3.8-3.8,3.8h-6.365
	C44.288,94.204,42.578,92.494,42.578,90.404z M87.038,93.634l-22.8-22.799l0.855-0.855l-1.33-1.33
	c-9.31,6.935-22.515,6.175-30.97-2.28c-9.31-9.31-9.31-24.32,0-33.535c9.31-9.31,24.319-9.31,33.535,0
	c8.455,8.455,9.215,21.66,2.28,30.97l1.33,1.33l0.855-0.855l22.8,22.8c1.805,1.805,1.805,4.75,0,6.65
	C91.882,95.439,88.937,95.439,87.038,93.634z M61.293,37.965c-6.46-6.46-16.815-6.46-23.275,0s-6.46,16.815,0,23.275
	c6.46,6.46,16.815,6.46,23.275,0C67.658,54.779,67.658,44.425,61.293,37.965z M49.988,42.525c0.665,0,1.235,0.285,1.615,0.76
	c0.285,0.38,0.475,1.045,0.57,1.71c0,0.38,0.38,0.57,0.665,0.57l3.515-0.095c0.38,0,0.665-0.285,0.665-0.665
	c-0.095-1.52-0.57-2.755-1.425-3.8c-0.95-1.045-2.185-1.71-3.61-2.09v-2.66c0-0.285-0.285-0.57-0.57-0.57h-2.09
	c-0.285,0-0.57,0.285-0.57,0.57v2.565c-1.615,0.19-2.945,0.855-3.895,1.805c-1.14,1.045-1.615,2.375-1.615,4.085
	c0,1.805,0.475,3.135,1.52,4.085c1.045,0.95,2.66,1.9,4.94,2.755c0.95,0.38,1.615,0.855,1.995,1.235
	c0.38,0.38,0.57,1.045,0.57,1.805c0,0.665-0.19,1.235-0.57,1.615c-0.38,0.38-0.855,0.57-1.615,0.57c-0.855,0-1.52-0.285-1.995-0.76
	c-0.475-0.475-0.665-1.14-0.76-1.995c0-0.38-0.38-0.57-0.665-0.57l-3.515,0.095c-0.38,0-0.665,0.285-0.665,0.665
	c0.095,1.805,0.665,3.23,1.805,4.275c1.235,1.045,2.66,1.71,4.465,1.9v2.375c0,0.285,0.285,0.57,0.57,0.57h2.09
	c0.285,0,0.57-0.285,0.57-0.57v-2.47c1.425-0.285,2.565-0.855,3.515-1.71c1.045-1.045,1.615-2.375,1.615-4.085
	c0-1.805-0.57-3.135-1.615-4.085c-1.045-0.95-2.66-1.9-4.94-2.85c-0.95-0.38-1.615-0.855-1.995-1.235
	c-0.38-0.38-0.57-0.95-0.57-1.615s0.19-1.235,0.475-1.615C48.753,42.81,49.228,42.525,49.988,42.525z"/>
</svg>
