<?xml version="1.0" encoding="utf-8"?>
<!-- Generator: Adobe Illustrator 21.0.0, SVG Export Plug-In . SVG Version: 6.00 Build 0)  -->
<svg version="1.1" id="Layer_1" xmlns="http://www.w3.org/2000/svg" xmlns:xlink="http://www.w3.org/1999/xlink" x="0px" y="0px"
	 viewBox="0 0 100 100" style="enable-background:new 0 0 100 100;" xml:space="preserve">
<style type="text/css">
	.st0{fill:#010101;}
</style>
<g>
	<rect x="13.209" y="63.828" class="st0" width="55.884" height="31.172"/>
	<rect x="9.836" y="55.377" class="st0" width="62.781" height="5.692"/>
	<path class="st0" d="M55.528,45.572L55.528,45.572l5.005-7.793l-2.256-1.337l-6.236,2.527c-0.899,0.364-1.709,0.541-2.477,0.541
		l0,0c-2.014,0-3.6-1.187-4.848-3.627c-0.588-1.15-0.651-2.48-0.18-3.745c0.364-0.976,1.026-1.87,1.853-2.546l-3.232-1.971
		c-0.167-0.102-0.305-0.235-0.41-0.386l-0.479-0.285l-13.434,20.08l25.846-0.135L55.528,45.572z"/>
	<polygon class="st0" points="61.839,45.572 58.807,45.572 57.867,47.034 59.864,47.034 59.864,49.794 27.61,49.794 23.649,49.815 
		23.664,49.794 22.592,49.794 22.592,47.034 25.509,47.034 26.488,45.572 20.573,45.572 11.564,52.617 70.904,52.617 	"/>
	<path class="st0" d="M68.953,12.988c-3.526,0-6.399-0.522-10.787-1.552c-0.279-0.064-0.562-0.098-0.843-0.098
		c-1.957,0-4.102,1.68-5.738,4.494c-1.964,3.376-2.608,4.508-3.253,5.641c-0.566,0.995-1.132,1.99-2.586,4.493l3.499,2.134
		l2.003-0.771c0.377-0.324,1.099-1.257,1.687-2.016c0.59-0.764,1.2-1.554,1.773-2.172c0.469-0.507,1.004-1.021,1.721-1.342
		c0.473-0.213,1.021-0.319,1.632-0.319c1.5,0,3.553,0.71,4.407,2.027c0.217,0.336,0.279,0.751,0.166,1.135
		c-0.111,0.385-0.386,0.702-0.751,0.868l-9.455,4.318c-0.138,0.062-0.289,0.121-0.458,0.186l-2.688,1.09l0,0l-0.365,0.148
		c-0.78,0.318-1.5,1.058-1.794,1.844c-0.204,0.547-0.187,1.061,0.052,1.526c1.085,2.124,2,2.124,2.391,2.124
		c0.401,0,0.886-0.113,1.44-0.339l9.6-3.89c2.117-0.858,4.083-1.149,6.348-0.942c0.257,0.023,0.518,0.036,0.783,0.036
		c1.871,0,3.631-0.601,4.828-1.649c0.569-0.497,1.086-0.886,1.721-1.295l6.565-4.222l-6.764-11.714
		C72.16,12.891,70.484,12.988,68.953,12.988z"/>
	
		<rect x="79.183" y="5.294" transform="matrix(0.8661 -0.4999 0.4999 0.8661 3.4491 43.2335)" class="st0" width="6.473" height="19.77"/>
</g>
</svg>
