<?xml version="1.0" encoding="utf-8"?>
<!-- Generator: Adobe Illustrator 21.0.0, SVG Export Plug-In . SVG Version: 6.00 Build 0)  -->
<svg version="1.1" id="Layer_1" xmlns="http://www.w3.org/2000/svg" xmlns:xlink="http://www.w3.org/1999/xlink" x="0px" y="0px"
	 viewBox="0 0 100 100" style="enable-background:new 0 0 100 100;" xml:space="preserve">
<style type="text/css">
	.st0{fill:#010101;}
</style>
<g>
	<path class="st0" d="M74.375,87.5c0,0-48.375,0-48.75,0c-2.25,0-3.75,1.5-3.75,3.75V95h56.25v-3.75
		C78.125,89,76.625,87.5,74.375,87.5z"/>
	<path class="st0" d="M29.375,81.875v-11.25c0-1.125-0.75-1.875-1.875-1.875c-1.125,0-1.875,0.75-1.875,1.875v11.25
		c0,1.125,0.75,1.875,1.875,1.875S29.375,83,29.375,81.875z"/>
	<path class="st0" d="M36.875,81.875v-11.25c0-1.125-0.75-1.875-1.875-1.875c-1.125,0-1.875,0.75-1.875,1.875v11.25
		c0,1.125,0.75,1.875,1.875,1.875C36.125,83.75,36.875,83,36.875,81.875z"/>
	<path class="st0" d="M44.375,81.875v-11.25c0-1.125-0.75-1.875-1.875-1.875c-1.125,0-1.875,0.75-1.875,1.875v11.25
		c0,1.125,0.75,1.875,1.875,1.875C43.625,83.75,44.375,83,44.375,81.875z"/>
	<path class="st0" d="M51.875,81.875v-11.25c0-1.125-0.75-1.875-1.875-1.875s-1.875,0.75-1.875,1.875v11.25
		c0,1.125,0.75,1.875,1.875,1.875S51.875,83,51.875,81.875z"/>
	<path class="st0" d="M59.375,81.875v-11.25c0-1.125-0.75-1.875-1.875-1.875c-1.125,0-1.875,0.75-1.875,1.875v11.25
		c0,1.125,0.75,1.875,1.875,1.875C58.625,83.75,59.375,83,59.375,81.875z"/>
	<path class="st0" d="M66.875,81.875v-11.25c0-1.125-0.75-1.875-1.875-1.875c-1.125,0-1.875,0.75-1.875,1.875v11.25
		c0,1.125,0.75,1.875,1.875,1.875C66.125,83.75,66.875,83,66.875,81.875z"/>
	<path class="st0" d="M74.375,81.875v-11.25c0-1.125-0.75-1.875-1.875-1.875c-1.125,0-1.875,0.75-1.875,1.875v11.25
		c0,1.125,0.75,1.875,1.875,1.875S74.375,83,74.375,81.875z"/>
	<path class="st0" d="M36.875,23.75c2.07,0,3.75-1.676,3.75-3.75h5.625l1.875,3l-7.5,12h3.75l5.625-9l5.625,9h3.75l-7.5-12l1.875-3
		h5.625c0,2.074,1.68,3.75,3.75,3.75h7.5l7.5-15h-11.25c0-2.074-1.68-3.75-3.75-3.75h-3.75l-9.375,15L40.626,5h-3.75
		c-2.07,0-3.75,1.676-3.75,3.75h-11.25l7.5,15C29.376,23.75,36.875,23.75,36.875,23.75z"/>
	<polygon class="st0" points="74.375,38.75 74.375,46.25 63.125,46.25 63.125,38.75 55.625,38.75 55.625,46.25 44.375,46.25 
		44.375,38.75 36.875,38.75 36.875,46.25 25.625,46.25 25.625,38.75 18.125,38.75 18.125,53.75 81.875,53.75 81.875,38.75 	"/>
	<path class="st0" d="M21.875,61.25c0,2.25,1.5,3.75,3.75,3.75h48C74,65,74,65,74.375,65c2.25,0,3.75-1.5,3.75-3.75V57.5h-56.25
		L21.875,61.25L21.875,61.25z"/>
</g>
</svg>
