<?xml version="1.0" encoding="utf-8"?>
<!-- Generator: Adobe Illustrator 21.0.0, SVG Export Plug-In . SVG Version: 6.00 Build 0)  -->
<svg version="1.1" id="Layer_1" xmlns="http://www.w3.org/2000/svg" xmlns:xlink="http://www.w3.org/1999/xlink" x="0px" y="0px"
	 viewBox="0 0 100 100" style="enable-background:new 0 0 100 100;" xml:space="preserve">
<style type="text/css">
	.st0{fill:#010101;}
</style>
<g>
	<g>
		<path class="st0" d="M88.123,5H34.888c-1.403,0-2.552,1.148-2.552,2.551v4.558h2.32V7.552c0-0.128,0.104-0.232,0.232-0.232h53.234
			c0.128,0,0.232,0.104,0.232,0.232v68.381c0,0.128-0.104,0.232-0.232,0.232h-8.096v2.32h8.096c1.403,0,2.551-1.148,2.551-2.552
			V7.552C90.674,6.148,89.526,5,88.123,5z"/>
		<g>
			<path class="st0" d="M78.288,16.401V84.77c0,1.404-1.148,2.552-2.552,2.552h-6.321v-2.32h6.321c0.128,0,0.232-0.104,0.232-0.232
				V16.401c0-0.128-0.104-0.232-0.232-0.232H22.501c-0.128,0-0.232,0.104-0.232,0.232v3.375h-2.32v-3.375
				c0-1.403,1.148-2.551,2.551-2.551h53.234C77.139,13.849,78.288,14.998,78.288,16.401z"/>
		</g>
	</g>
	<g>
		<path class="st0" d="M55.416,34.725H17.143c-0.476,0-0.87-0.394-0.87-0.87c0-0.476,0.394-0.87,0.87-0.87h38.088l0.023,1.252
			C55.254,34.412,55.312,34.586,55.416,34.725z"/>
	</g>
	<g>
		<path class="st0" d="M59.464,41.649c0,0.487-0.394,0.87-0.87,0.87H17.143c-0.476,0-0.87-0.383-0.87-0.87
			c0-0.475,0.394-0.87,0.87-0.87h41.451C59.07,40.78,59.464,41.162,59.464,41.649z"/>
	</g>
	<g>
		<path class="st0" d="M59.464,49.443c0,0.475-0.394,0.87-0.87,0.87H17.143c-0.476,0-0.87-0.394-0.87-0.87
			c0-0.487,0.394-0.87,0.87-0.87h41.451C59.07,48.573,59.464,48.968,59.464,49.443z"/>
	</g>
	<g>
		<path class="st0" d="M59.464,57.237c0,0.476-0.394,0.87-0.87,0.87H17.143c-0.476,0-0.87-0.394-0.87-0.87
			c0-0.475,0.394-0.87,0.87-0.87h41.451C59.07,56.367,59.464,56.762,59.464,57.237z"/>
	</g>
	<g>
		<path class="st0" d="M59.464,65.031c0,0.488-0.394,0.87-0.87,0.87H17.143c-0.476,0-0.87-0.383-0.87-0.87
			c0-0.475,0.394-0.869,0.87-0.869h41.451C59.07,64.161,59.464,64.555,59.464,65.031z"/>
	</g>
	<g>
		<path class="st0" d="M59.464,72.825c0,0.476-0.394,0.87-0.87,0.87H17.143c-0.476,0-0.87-0.394-0.87-0.87
			c0-0.475,0.394-0.87,0.87-0.87h41.451C59.07,71.955,59.464,72.349,59.464,72.825z"/>
	</g>
	<g>
		<path class="st0" d="M59.464,80.63c0,0.476-0.394,0.87-0.87,0.87H17.143c-0.476,0-0.87-0.394-0.87-0.87
			c0-0.475,0.394-0.87,0.87-0.87h41.451C59.07,79.76,59.464,80.143,59.464,80.63z"/>
	</g>
	<g>
		<path class="st0" d="M40.072,88.424c0,0.487-0.394,0.87-0.87,0.87H17.143c-0.476,0-0.87-0.383-0.87-0.87
			c0-0.475,0.394-0.87,0.87-0.87h22.059C39.678,87.554,40.072,87.937,40.072,88.424z"/>
	</g>
	<g>
		<path class="st0" d="M65.356,30.632l-6.808-6.796l-2.32-2.32H11.877c-1.403,0-2.551,1.148-2.551,2.551v68.381
			c0,1.403,1.148,2.551,2.551,2.551h53.234c1.404,0,2.552-1.148,2.552-2.551V32.951L65.356,30.632z M65.356,92.448
			c0,0.128-0.104,0.232-0.232,0.232H11.889c-0.128,0-0.232-0.104-0.232-0.232V24.067c0-0.128,0.104-0.232,0.232-0.232h43.736
			l-0.07,8.455l0.011,1.241c0,0.174,0.139,0.301,0.302,0.301c0.011,0,0.011,0,0.023,0l3.444-0.012l6.02-0.023L65.356,92.448
			L65.356,92.448z"/>
	</g>
</g>
</svg>
