<?xml version="1.0" encoding="utf-8"?>
<!-- Generator: Adobe Illustrator 21.0.0, SVG Export Plug-In . SVG Version: 6.00 Build 0)  -->
<svg version="1.1" id="Layer_1" xmlns="http://www.w3.org/2000/svg" xmlns:xlink="http://www.w3.org/1999/xlink" x="0px" y="0px"
	 viewBox="0 0 100 100" style="enable-background:new 0 0 100 100;" xml:space="preserve">
<style type="text/css">
	.st0{fill:#010101;}
</style>
<g>
	<path class="st0" d="M70.424,45.075V25.569C70.424,14.27,61.251,5,49.952,5S29.48,14.174,29.48,25.472v5.601
		c0,2.994,2.511,5.504,5.504,5.504s5.504-2.511,5.504-5.504v-5.601c0-5.215,4.249-9.56,9.56-9.56c5.311,0,9.56,4.249,9.56,9.56
		v12.65c-2.994-1.062-6.18-1.642-9.56-1.642c-16.127,0-29.163,13.133-29.163,29.163C20.789,81.867,33.825,95,49.952,95
		c16.127,0,29.163-13.133,29.163-29.26C79.116,57.725,75.832,50.386,70.424,45.075z M23.3,65.74
		c0-14.678,11.974-26.652,26.652-26.652c14.678,0,26.652,11.974,26.652,26.652S64.63,92.393,49.952,92.393
		C35.274,92.393,23.3,80.515,23.3,65.74z M49.952,13.498c-6.663,0-12.071,5.408-12.071,12.071v5.601
		c0,1.642-1.352,2.994-2.994,2.994s-2.994-1.352-2.994-2.994v-5.601c0-9.946,8.015-17.961,17.961-17.961s17.961,8.015,17.961,17.961
		v17.285c-1.835-1.448-3.766-2.607-5.89-3.573V25.569C62.023,18.905,56.615,13.498,49.952,13.498z"/>
	<path class="st0" d="M49.952,50.869c-5.118,0-9.174,4.152-9.174,9.174c0,2.801,1.352,5.504,3.573,7.243v7.822
		c0,3.09,2.511,5.697,5.697,5.697s5.697-2.511,5.697-5.697v-7.822c2.221-1.739,3.573-4.442,3.573-7.243
		C59.126,54.925,55.07,50.869,49.952,50.869z M53.042,65.933v9.174c0,1.739-1.448,3.09-3.09,3.09c-1.738,0-3.09-1.449-3.09-3.09
		v-9.174l-0.58-0.386c-1.835-1.255-2.994-3.283-2.994-5.504c0-3.67,2.994-6.663,6.663-6.663s6.663,2.994,6.663,6.663
		c0,2.221-1.062,4.345-2.994,5.504L53.042,65.933z"/>
</g>
</svg>
