<?xml version="1.0" encoding="utf-8"?>
<!-- Generator: Adobe Illustrator 21.0.0, SVG Export Plug-In . SVG Version: 6.00 Build 0)  -->
<svg version="1.1" id="Layer_1" xmlns="http://www.w3.org/2000/svg" xmlns:xlink="http://www.w3.org/1999/xlink" x="0px" y="0px"
	 viewBox="0 0 100 100" style="enable-background:new 0 0 100 100;" xml:space="preserve">
<style type="text/css">
	.st0{fill:#010101;}
</style>
<path class="st0" d="M6.174,5v60.38v9.114c0,6.266,5.126,11.393,11.393,11.393h20.896l2.667-15.006l0.202-1.132l0.624-0.967
	L56.09,46.93l-7.674-4.774l12.996-20.9c1.012-1.639,2.44-2.95,4.033-3.809c1.595-0.863,3.357-1.306,5.157-1.307
	c1.709-0.006,3.469,0.446,5.064,1.299V5H6.174z M25.101,56.934L15.858,50l3.418-4.557l4.426,3.32l6.747-10.118l4.739,3.159
	L25.101,56.934z M25.101,36.427l-9.244-6.933l3.418-4.557l4.426,3.32l6.747-10.118l4.739,3.159L25.101,36.427z"/>
<g>
	<path class="st0" d="M89.662,22.305c-1.529-0.99-3.246-1.463-4.942-1.463c-2.981,0-5.903,1.464-7.648,4.149l-3.74-2.365
		c-0.848-0.536-1.812-0.795-2.746-0.793c-0.843,0-1.671,0.204-2.42,0.598c-0.748,0.394-1.423,0.99-1.915,1.751L55.693,40.505
		l4.784,3.093l10.264-15.87l3.234,2.043L46.737,71.876L42.63,95l19.489-13.345l30.231-46.73l0.014-0.019
		C95.097,30.682,93.887,25.039,89.662,22.305z M87.637,31.726l-4.388,6.784l-5.74-3.714l4.334-6.696
		c0.632-0.977,1.708-1.562,2.876-1.562c0.654,0,1.293,0.189,1.848,0.549C88.12,28.094,88.587,30.154,87.637,31.726z"/>
	<polygon class="st0" points="66.251,24.184 66.251,24.183 66.253,24.18 	"/>
</g>
</svg>
