<?xml version="1.0" encoding="utf-8"?>
<!-- Generator: Adobe Illustrator 21.0.0, SVG Export Plug-In . SVG Version: 6.00 Build 0)  -->
<svg version="1.1" id="Layer_1" xmlns="http://www.w3.org/2000/svg" xmlns:xlink="http://www.w3.org/1999/xlink" x="0px" y="0px"
	 viewBox="0 0 100 100" style="enable-background:new 0 0 100 100;" xml:space="preserve">
<style type="text/css">
	.st0{fill:#010101;}
</style>
<g>
	<path class="st0" d="M17.7,20.1c-0.5-0.3-1.1,0.1-1.1,0.7v5.9c0,2.2-1.8,4-4,4s-4-1.8-4-4v-5.9c0-0.6-0.6-1-1.1-0.7
		c-3.1,1.8-5.1,5.2-5,9.1C2.6,33,5,36.4,8.3,38L6.8,76c-0.1,2.2,1.6,4,3.8,4h4c2.2,0,3.9-1.8,3.8-4l-1.5-38c3.4-1.6,5.8-5.1,5.8-9.2
		C22.7,25.1,20.7,21.9,17.7,20.1z"/>
	<path class="st0" d="M36.7,53.8c-0.1-1-0.9-1.8-1.9-1.8h-4.5c-1,0-1.8,0.8-1.9,1.8l-1.6,22.1c-0.2,2.2,1.6,4.1,3.8,4.1h3.9
		c2.2,0,3.9-1.9,3.8-4.1L36.7,53.8z"/>
	<path class="st0" d="M30.9,30.4L30.9,30.4L31,50.7h3.3V30.4h0.1c1.3,0,2.3-1.2,2-2.4l-1.3-7.2c-0.1-0.4-0.4-0.7-0.8-0.7H31
		c-0.4,0-0.7,0.3-0.8,0.7L28.9,28C28.6,29.2,29.6,30.4,30.9,30.4z"/>
	<path class="st0" d="M90.7,60.1c0,0.5-0.4,0.9-0.9,0.9H87c-0.5,0-0.9-0.4-0.9-0.9v-2.4H57.2v2.4c0,0.5-0.4,0.9-0.9,0.9h-2.8
		c-0.5,0-0.9-0.4-0.9-0.9v-2.4h-6.7v18.6c0,2.1,1.7,3.8,3.8,3.8h44c2.1,0,3.8-1.7,3.8-3.8V57.7h-6.7L90.7,60.1L90.7,60.1z"/>
	<path class="st0" d="M93.6,40.5H82.9v-4c0-3.2-2.6-5.8-5.8-5.8H66c-3.2,0-5.8,2.6-5.8,5.8v4H49.5c-2.1,0-3.8,1.7-3.8,3.8v11.3h6.7
		v-2.4c0-0.5,0.4-0.9,0.9-0.9h2.8c0.5,0,0.9,0.4,0.9,0.9v2.4h28.9v-2.4c0-0.5,0.4-0.9,0.9-0.9h2.8c0.5,0,0.9,0.4,0.9,0.9v2.4h6.7
		V44.3C97.4,42.2,95.7,40.5,93.6,40.5z M78.9,40.5H64.2v-4c0-1,0.8-1.8,1.8-1.8h11.1c1,0,1.8,0.8,1.8,1.8L78.9,40.5L78.9,40.5z"/>
</g>
</svg>
