<?xml version="1.0" encoding="utf-8"?>
<!-- Generator: Adobe Illustrator 21.0.0, SVG Export Plug-In . SVG Version: 6.00 Build 0)  -->
<svg version="1.1" id="Layer_1" xmlns="http://www.w3.org/2000/svg" xmlns:xlink="http://www.w3.org/1999/xlink" x="0px" y="0px"
	 viewBox="0 0 100 100" style="enable-background:new 0 0 100 100;" xml:space="preserve">
<style type="text/css">
	.st0{fill:#010101;}
</style>
<g transform="translate(0,-1020.3622)">
	<g transform="translate(-8.0009203,-4.1324463)">
		<path class="st0" d="M49.563,1029.495v5.62v11.255h-2.812v-10.365c-1.904,0.686-3.739,1.548-5.482,2.576
			c-8.83,5.281-14.628,14.432-15.628,24.664h64.495c-1.019-10.475-7.065-19.805-16.216-25.021c-1.497-0.833-3.059-1.545-4.669-2.131
			v10.277h-2.813v-11.222v-5.652h-7.13v8.438h-2.812v-8.438L49.563,1029.495L49.563,1029.495z M90.136,1063.245
			c0.087,0.779,0.145,1.562,0.175,2.345c-0.023-0.783-0.074-1.566-0.154-2.345H90.136z M25.608,1063.679
			c-0.069,0.791-0.11,1.584-0.121,2.379h-4.048c-1.558,0-2.812,1.254-2.812,2.812v2.812c0,1.558,1.254,2.812,2.812,2.812h73.124
			c1.558,0,2.812-1.255,2.812-2.812v-2.812c0-1.558-1.254-2.812-2.812-2.812h-4.224H25.498
			C25.506,1065.263,25.542,1064.47,25.608,1063.679z M18.626,1080.12v1.456v4.169v1.533h8.014c0.795,3.535,2.181,6.913,4.098,9.986
			l-5.642,5.63l10.129,10.129l5.647-5.653c3.068,1.926,6.439,3.315,9.97,4.12v8.004h14.315v-8.015
			c3.535-0.794,6.913-2.175,9.986-4.092l5.63,5.636l10.129-10.129l-5.652-5.647c1.926-3.068,3.32-6.438,4.125-9.97h7.998v-1.533
			v-4.169v-1.456H77.688c0,10.873-8.814,19.688-19.687,19.688s-19.687-8.814-19.687-19.688L18.626,1080.12L18.626,1080.12z"/>
	</g>
</g>
</svg>
