<?xml version="1.0" encoding="utf-8"?>
<!-- Generator: Adobe Illustrator 21.0.0, SVG Export Plug-In . SVG Version: 6.00 Build 0)  -->
<svg version="1.1" id="Layer_1" xmlns="http://www.w3.org/2000/svg" xmlns:xlink="http://www.w3.org/1999/xlink" x="0px" y="0px"
	 viewBox="0 0 100 100" style="enable-background:new 0 0 100 100;" xml:space="preserve">
<style type="text/css">
	.st0{fill:#010101;}
</style>
<g>
	<path class="st0" d="M55.342,60.39c-0.857-0.572-2.299-1.247-4.326-2.027v-4.598c1.704,0.146,3.367,0.551,4.988,1.216l1.465-3.647
		c-1.923-0.852-4.074-1.33-6.453-1.434v-2.323h-2.136v2.385c-2.11,0.208-3.754,0.797-4.933,1.769
		c-1.179,0.972-1.769,2.211-1.769,3.718c0,1.403,0.429,2.58,1.286,3.531c0.857,0.951,2.315,1.832,4.372,2.642l1.044,0.405v4.832
		c-0.998-0.062-2.133-0.265-3.406-0.608c-1.273-0.343-2.361-0.738-3.266-1.185v4.115c1.912,0.842,4.136,1.289,6.671,1.34v3.133
		h2.136v-3.195c2.151-0.197,3.824-0.798,5.019-1.8c1.195-1.003,1.793-2.33,1.793-3.983c0-0.914-0.2-1.714-0.6-2.4
		C56.828,61.59,56.199,60.961,55.342,60.39z M48.881,57.49c-0.707-0.312-1.218-0.616-1.536-0.912
		c-0.317-0.296-0.476-0.673-0.476-1.13c0-0.883,0.67-1.424,2.011-1.621L48.881,57.49L48.881,57.49z M51.017,66.749v-3.881
		c0.707,0.322,1.237,0.634,1.59,0.936c0.353,0.301,0.53,0.67,0.53,1.107C53.136,65.897,52.43,66.51,51.017,66.749z"/>
	<path class="st0" d="M50.009,5L5.93,49.08l2.621,2.621l7.994-7.976V95h66.928V43.726l7.976,7.976l2.621-2.621L50.009,5z
		 M50.009,81.057c-11.285,0-20.45-9.166-20.45-20.451c0-11.266,9.166-20.45,20.45-20.45c11.266,0,20.45,9.184,20.45,20.45
		C70.46,71.891,61.276,81.057,50.009,81.057z"/>
</g>
</svg>
