<?xml version="1.0" encoding="utf-8"?>
<!-- Generator: Adobe Illustrator 21.0.0, SVG Export Plug-In . SVG Version: 6.00 Build 0)  -->
<svg version="1.1" id="Layer_1" xmlns="http://www.w3.org/2000/svg" xmlns:xlink="http://www.w3.org/1999/xlink" x="0px" y="0px"
	 viewBox="0 0 100 100" style="enable-background:new 0 0 100 100;" xml:space="preserve">
<style type="text/css">
	.st0{fill:#010101;}
</style>
<polygon class="st0" points="83.711,42.979 57.021,42.979 57.021,16.288 42.98,16.288 42.98,42.979 16.289,42.979 16.289,57.021 
	42.98,57.021 42.98,83.712 57.021,83.712 57.021,57.021 83.711,57.021 "/>
<path class="st0" d="M50,95C25.186,95,4.999,74.813,4.999,50.001S25.186,5,50,5s45.001,20.188,45.001,45.001S74.814,95,50,95L50,95z
	 M50,9.86c-22.135,0-40.14,18.007-40.14,40.14S27.865,90.141,50,90.141c22.133,0,40.139-18.007,40.139-40.14S72.133,9.86,50,9.86
	L50,9.86z"/>
</svg>
