<?xml version="1.0" encoding="utf-8"?>
<!-- Generator: Adobe Illustrator 21.0.0, SVG Export Plug-In . SVG Version: 6.00 Build 0)  -->
<svg version="1.1" id="Layer_1" xmlns="http://www.w3.org/2000/svg" xmlns:xlink="http://www.w3.org/1999/xlink" x="0px" y="0px"
	 viewBox="0 0 100 100" style="enable-background:new 0 0 100 100;" xml:space="preserve">
<style type="text/css">
	.st0{fill:#010101;}
</style>
<g>
	<path class="st0" d="M70.79,88.571H56.56h-0.927h-42.7V11.428H70.79v35.319l6.429-11.519V11.574c0-3.64-2.544-6.574-6.184-6.574
		h-58.37c-3.639,0-6.16,2.934-6.16,6.574v77.254c0,3.638,2.522,6.172,6.16,6.172h58.37c3.639,0,6.184-2.534,6.184-6.172V67.663
		L70.79,79.182L70.79,88.571L70.79,88.571z"/>
	<rect x="18.443" y="21.531" class="st0" width="35.816" height="4.592"/>
	<rect x="18.443" y="42.653" class="st0" width="35.816" height="4.592"/>
	<rect x="18.443" y="32.551" class="st0" width="46.837" height="4.592"/>
	<rect x="18.443" y="53.673" class="st0" width="46.837" height="4.592"/>
	<rect x="18.443" y="63.775" class="st0" width="35.816" height="4.592"/>
	<polygon class="st0" points="87.042,28.144 85.3,31.175 84.549,32.484 91.003,36.19 91.755,34.883 93.496,31.85 	"/>
	<polygon class="st0" points="59.769,74.419 59.769,82.143 66.404,78.126 89.252,38.589 82.798,34.883 	"/>
	<circle class="st0" cx="22.671" cy="79.041" r="4.46"/>
	<circle class="st0" cx="36.82" cy="79.096" r="4.46"/>
</g>
</svg>
