<?xml version="1.0" encoding="utf-8"?>
<!-- Generator: Adobe Illustrator 21.0.0, SVG Export Plug-In . SVG Version: 6.00 Build 0)  -->
<svg version="1.1" id="Layer_1" xmlns="http://www.w3.org/2000/svg" xmlns:xlink="http://www.w3.org/1999/xlink" x="0px" y="0px"
	 viewBox="0 0 100 100" style="enable-background:new 0 0 100 100;" xml:space="preserve">
<style type="text/css">
	.st0{fill:#010101;}
</style>
<g>
	<path class="st0" d="M25.883,41.678l-0.42,3.256h5.518l-0.407-3.161c1.223-0.243,2.397-0.704,3.372-1.438
		c3.119-2.347,3.815-7.25,2.115-10.549c-0.571-1.111-1.365-1.986-2.377-2.627c-1.014-0.641-2.577-1.26-4.69-1.861
		c-2.114-0.599-3.444-1.175-3.992-1.727c-0.611-0.618-0.816-1.545-0.512-2.345c0.547-1.444,2.419-1.817,3.854-1.771
		c0.801,0.026,1.614,0.251,2.228,0.742c0.524,0.419,0.86,1.004,1.072,1.628l4.406-0.872c-0.394-1.794-1.293-3.471-2.952-4.52
		c-0.785-0.496-1.67-0.823-2.588-1.035l0.473-3.662h-5.518l0.465,3.601c-0.559,0.119-1.109,0.271-1.63,0.498
		c-5.105,2.227-5.413,9.58-1.007,12.622c1.479,1.02,3.268,1.476,4.989,1.984c1.525,0.452,3.483,0.91,4.124,2.486
		c0.49,1.205,0.014,2.579-0.892,3.486c-0.71,0.711-1.765,1.067-3.163,1.067c-2.481,0-4.156-1.78-4.518-4.035l-4.2,0.948
		c0.414,2.178,1.322,4.313,3.072,5.742C23.617,40.883,24.716,41.386,25.883,41.678 M28.298,50.922
		c-12.268,0-22.212-9.944-22.212-22.212C6.086,16.444,16.03,6.5,28.298,6.5c12.267,0,22.211,9.944,22.211,22.211
		C50.508,40.978,40.564,50.922,28.298,50.922 M94.54,39.048L77.98,65.85c-0.351,0.569-0.868,0.966-1.449,1.192v28.468
		c0,0.547-0.443,0.989-0.988,0.989c-0.546,0-0.988-0.442-0.988-0.989V67.113c-0.165-0.053-0.328-0.117-0.486-0.2l-13.354-7.075
		v35.673c0,0.547-0.442,0.989-0.988,0.989c-0.546,0-0.989-0.442-0.989-0.989V60.063L44.4,75.585v19.926
		c0,0.547-0.442,0.989-0.989,0.989c-0.546,0-0.989-0.442-0.989-0.989V76.815c-0.603,0.103-1.238,0.023-1.813-0.263l-13.844-6.858
		v25.818c0,0.547-0.443,0.989-0.989,0.989c-0.546,0-0.989-0.442-0.989-0.989V69.489L9.884,81.941c-0.554,0.464-1.23,0.69-1.9,0.69
		c-0.848,0-1.691-0.362-2.278-1.064c-1.05-1.257-0.882-3.128,0.375-4.178l16.972-14.179c0.902-0.755,2.164-0.904,3.218-0.382
		l14.982,7.423l15.464-16.745c0.914-0.991,2.378-1.238,3.568-0.609l14.106,7.473l15.101-24.44c0.862-1.394,2.691-1.825,4.082-0.965
		C94.97,35.826,95.401,37.655,94.54,39.048"/>
</g>
</svg>
