<?xml version="1.0" encoding="utf-8"?>
<!-- Generator: Adobe Illustrator 21.0.0, SVG Export Plug-In . SVG Version: 6.00 Build 0)  -->
<svg version="1.1" id="Layer_1" xmlns="http://www.w3.org/2000/svg" xmlns:xlink="http://www.w3.org/1999/xlink" x="0px" y="0px"
	 viewBox="0 0 100 100" style="enable-background:new 0 0 100 100;" xml:space="preserve">
<style type="text/css">
	.st0{fill:#010101;}
</style>
<g transform="translate(0,-952.36218)">
	<path class="st0" d="M50,957.362c7.313,0,12.668,2.792,18.244,8.374c4.147,4.151,6.66,9.3,7.727,14.67
		C86.791,982.507,95,991.967,95,1003.385c0,12.955-10.557,23.523-23.499,23.523h-9.24c-1.693,0.024-3.084-1.33-3.109-3.025
		c-0.024-1.694,1.329-3.087,3.022-3.112c0.029,0,0.058,0,0.087,0h9.24c9.629,0,17.369-7.748,17.369-17.386
		c0-9.102-6.915-16.518-15.772-17.322c-1.431-0.14-2.572-1.256-2.746-2.685c-0.564-4.863-2.714-9.588-6.449-13.327
		c-4.399-4.403-8.141-6.552-13.902-6.552c-5.76,0-9.467,2.144-13.87,6.552c-5.088,5.094-7.242,12.014-6.45,18.633
		c0.212,1.681-0.979,3.216-2.658,3.428c-0.124,0.016-0.249,0.024-0.374,0.024h-1.213c-7.977,0-14.304,6.333-14.304,14.318
		s6.326,14.318,14.304,14.318H37.74c1.693-0.024,3.084,1.331,3.108,3.025c0.024,1.694-1.329,3.087-3.022,3.112
		c-0.029,0-0.058,0-0.087,0H25.434c-11.267,0-20.434-9.176-20.434-20.455c0-10.645,8.192-19.31,18.582-20.263
		c-0.048-7.404,2.579-14.823,8.206-20.455C37.359,960.159,42.687,957.362,50,957.362z M50,1004.408c1.693,0,3.065,1.374,3.065,3.068
		v29.883l6.098-5.561c1.189-1.079,3.259-0.993,4.342,0.192c1.083,1.184,1.106,3.141-0.192,4.347l-11.238,10.227
		c-0.514,0.47-1.054,0.799-2.076,0.799c-1.022,0-1.468-0.242-2.075-0.799l-11.239-10.227c-1.178-1.09-1.399-3.162-0.192-4.347
		c1.146-1.124,3.154-1.27,4.342-0.192l6.098,5.561v-29.883C46.935,1005.782,48.307,1004.408,50,1004.408L50,1004.408z"/>
</g>
</svg>
