<?xml version="1.0" encoding="utf-8"?>
<!-- Generator: Adobe Illustrator 21.0.0, SVG Export Plug-In . SVG Version: 6.00 Build 0)  -->
<svg version="1.1" id="Layer_1" xmlns="http://www.w3.org/2000/svg" xmlns:xlink="http://www.w3.org/1999/xlink" x="0px" y="0px"
	 viewBox="0 0 100 100" style="enable-background:new 0 0 100 100;" xml:space="preserve">
<style type="text/css">
	.st0{fill:#010101;}
</style>
<g transform="translate(0,-952.36218)">
	<path class="st0" d="M8.211,961.739c-1.76,0-3.211,1.45-3.211,3.211v74.826c0,1.76,1.451,3.211,3.211,3.211h83.578
		c1.76,0,3.211-1.451,3.211-3.211v-74.826c0-1.76-1.451-3.211-3.211-3.211L8.211,961.739L8.211,961.739z M8.211,963.879h83.578
		c0.612,0,1.071,0.459,1.071,1.071v22.381H7.141V964.95C7.141,964.338,7.599,963.879,8.211,963.879z M25.383,970.253
		c-2.943,0-5.352,2.409-5.352,5.352c0,2.943,2.409,5.352,5.352,5.352s5.351-2.409,5.351-5.352
		C30.734,972.662,28.326,970.253,25.383,970.253z M74.617,970.253c-2.943,0-5.351,2.409-5.351,5.352
		c0,2.943,2.408,5.352,5.351,5.352c2.943,0,5.352-2.409,5.352-5.352C79.968,972.662,77.559,970.253,74.617,970.253z M25.383,972.394
		c1.786,0,3.211,1.425,3.211,3.211s-1.425,3.211-3.211,3.211c-1.786,0-3.211-1.425-3.211-3.211
		C22.172,973.819,23.597,972.394,25.383,972.394z M74.617,972.394c1.786,0,3.211,1.425,3.211,3.211s-1.425,3.211-3.211,3.211
		c-1.786,0-3.21-1.425-3.21-3.211C71.406,973.819,72.831,972.394,74.617,972.394z M7.141,989.471H92.86v50.304
		c0,0.611-0.459,1.07-1.071,1.07H8.211c-0.611,0-1.07-0.459-1.07-1.07V989.471z M15.75,998.033v14.984h13.914v-14.984H15.75z
		 M33.946,998.033v14.984h13.914v-14.984H33.946z M52.141,998.033v14.984h13.914v-14.984H52.141z M70.336,998.033v14.984H84.25
		v-14.984H70.336L70.336,998.033z M15.75,1017.299v14.984h13.914v-14.984H15.75z M33.946,1017.299v14.984h13.914v-14.984H33.946z
		 M52.141,1017.299v14.984h13.914v-14.984H52.141z"/>
</g>
</svg>
