<?xml version="1.0" encoding="utf-8"?>
<!-- Generator: Adobe Illustrator 21.0.0, SVG Export Plug-In . SVG Version: 6.00 Build 0)  -->
<svg version="1.1" id="Layer_1" xmlns="http://www.w3.org/2000/svg" xmlns:xlink="http://www.w3.org/1999/xlink" x="0px" y="0px"
	 viewBox="0 0 100 100" style="enable-background:new 0 0 100 100;" xml:space="preserve">
<style type="text/css">
	.st0{fill:#ffffff;}
</style>
<path class="st0" d="M93.735,48.718h-1.08L81.963,24.274c2.059-1.95,2.29-5.365,0.518-7.629c-1.773-2.264-4.879-2.519-6.938-0.57
	c-0.37,0.35-0.69,0.758-0.95,1.212l-4.539-3.873c-4.304-3.668-9.865-5.05-15.185-3.773c-0.386-2.958-2.879-5.011-5.568-4.586
	c-2.162,0.341-3.86,2.209-4.17,4.586c-5.336-1.281-10.913,0.113-15.221,3.803l-4.538,3.873c-1.45-2.527-4.488-3.282-6.786-1.687
	c-2.298,1.594-2.985,4.936-1.535,7.462c0.26,0.454,0.581,0.862,0.95,1.212L7.336,48.718h-1.08C5.56,48.721,4.997,49.344,5,50.111
	c0,0.035,0.002,0.069,0.004,0.104c0.764,9.843,8.64,17.14,17.59,16.299c7.89-0.741,14.148-7.623,14.822-16.299
	c0.055-0.764-0.463-1.432-1.158-1.493c-0.031-0.003-0.063-0.004-0.094-0.004h-1.071L24.373,24.274l0.091-0.09l5.718-3.843
	c3.764-2.523,8.404-2.895,12.462-0.998c0.591,0.238,1.198,0.425,1.815,0.559v58.949l-23.063,8.055
	c-1.531,0.52-2.571,2.081-2.559,3.842v0.259c0,2.205,1.625,3.992,3.63,3.992h55.021c2.005,0,3.63-1.787,3.63-3.992v-0.309
	c-0.004-1.732-1.023-3.265-2.523-3.793L55.559,78.92V19.882c0.618-0.134,1.224-0.321,1.815-0.559
	c4.057-1.897,8.697-1.525,12.462,0.998l5.718,3.843l0.091,0.09L64.899,48.718h-1.053c-0.697,0.003-1.259,0.627-1.257,1.393
	c0,0.035,0.002,0.069,0.004,0.104c0.793,9.84,8.69,17.109,17.637,16.237c7.848-0.765,14.07-7.606,14.765-16.237
	c0.055-0.764-0.463-1.432-1.158-1.493C93.805,48.719,93.77,48.718,93.735,48.718z M29.801,48.718H12.556l8.604-19.633L29.801,48.718
	z M70.182,48.718l8.604-19.633l8.604,19.633H70.182z"/>
</svg>
