<?xml version="1.0" encoding="utf-8"?>
<!-- Generator: Adobe Illustrator 21.0.0, SVG Export Plug-In . SVG Version: 6.00 Build 0)  -->
<svg version="1.1" id="Layer_1" xmlns="http://www.w3.org/2000/svg" xmlns:xlink="http://www.w3.org/1999/xlink" x="0px" y="0px"
	 viewBox="0 0 100 100" style="enable-background:new 0 0 100 100;" xml:space="preserve">
<style type="text/css">
	.st0{fill:#010101;}
</style>
<g transform="translate(-165.363,-342.51957)">
	<path class="st0" d="M224.53,347.525c-0.95,0.056-1.867,0.477-2.549,1.283l-3.049,3.567l21.127,19.999l3.033-3.55
		c1.373-1.61,1.244-4.096-0.283-5.536l-15.579-14.762C226.466,347.802,225.48,347.471,224.53,347.525L224.53,347.525z
		 M219.232,356.048l-19.561,22.969l17.328,16.414l4.849-5.711c0.981-1.152,2.673-1.246,3.765-0.211l26.725,25.306
		c1.74,1.656,4.423,1.917,6.248,0.369c2.32-1.98,2.341-5.559,0.216-7.574l-26.892-25.499c-1.092-1.017-1.197-2.776-0.216-3.936
		l4.865-5.711L219.232,356.048L219.232,356.048z M196.188,379.105l-3.032,3.567c-1.374,1.61-1.261,4.078,0.267,5.518l15.595,14.779
		c1.527,1.448,3.884,1.312,5.249-0.298l3.032-3.568L196.188,379.105L196.188,379.105z M187.858,410.878
		c-3.003,0-5.432,2.561-5.432,5.729v5.026h46.686v-5.026h-0.014c0-3.167-2.429-5.729-5.432-5.729H187.86H187.858z M170.363,426.764
		v5.922c0,2.663,2.04,4.833,4.565,4.833h61.648c2.525,0,4.565-2.17,4.565-4.833v-5.922H170.363z"/>
</g>
</svg>
