<?xml version="1.0" encoding="utf-8"?>
<!-- Generator: Adobe Illustrator 21.0.0, SVG Export Plug-In . SVG Version: 6.00 Build 0)  -->
<svg version="1.1" id="Layer_1" xmlns="http://www.w3.org/2000/svg" xmlns:xlink="http://www.w3.org/1999/xlink" x="0px" y="0px"
	 viewBox="0 0 100 100" style="enable-background:new 0 0 100 100;" xml:space="preserve">
<style type="text/css">
	.st0{fill:#010101;}
</style>
<path class="st0" d="M87.865,93.146V13.782c0-3.251-2.558-5.886-5.713-5.886c-0.003,0-0.006,0-0.009,0h-5.042V6.174
	c0-0.648-0.51-1.174-1.138-1.174H40.357c-0.629,0-1.139,0.525-1.139,1.174l0,0v1.722h-5.051c-3.155,0-5.712,2.635-5.712,5.886
	v24.019h13.426c0.396,0,0.716,0.33,0.716,0.738v1.051h3.15c1.968,0,3.563,1.644,3.563,3.672l0,0v48.133h2.957V79.016H64.06V95H95
	v-1.892L87.865,93.146z M46.731,31.773H34.93V15.827h11.801V31.773z M64.06,75.477H52.259V59.53H64.06V75.477z M64.06,53.625H52.259
	V37.697H64.06V53.625z M64.06,31.773H52.259V15.827H64.06V31.773z M81.39,75.477H69.58V59.53h11.81V75.477z M81.39,53.625H69.58
	V37.697h11.81V53.625z M81.39,31.773H69.58V15.827h11.81V31.773z"/>
<path class="st0" d="M46.483,93.325v-47.11c0-2.028-1.595-3.672-3.563-3.672l0,0h-3.141v-1.117c0-0.408-0.321-0.738-0.716-0.738
	H16.874c-0.396,0-0.716,0.33-0.716,0.738v1.069h-3.15c-1.968,0.005-3.559,1.653-3.554,3.681c0,0.013,0,0.025,0,0.038v47.11H5V95
	h19.285V79.016h7.347V95h19.285v-1.675H46.483z M20.851,86.445h-7.347v-9.946h7.347V86.445z M20.851,72.827h-7.347V62.88h7.347
	V72.827z M20.851,59.208h-7.347v-9.956h7.347V59.208z M31.633,72.817h-7.347V62.88h7.347V72.817z M31.633,59.199h-7.347v-9.946
	h7.347V59.199z M42.451,81.231v5.167h-7.347v-9.899h7.347V81.231z M42.451,65.284v7.495h-7.347V62.88h7.347V65.284z M42.451,59.161
	h-7.347v-9.908h7.347V59.161z"/>
</svg>
