<?xml version="1.0" encoding="utf-8"?>
<!-- Generator: Adobe Illustrator 21.0.0, SVG Export Plug-In . SVG Version: 6.00 Build 0)  -->
<svg version="1.1" id="Layer_1" xmlns="http://www.w3.org/2000/svg" xmlns:xlink="http://www.w3.org/1999/xlink" x="0px" y="0px"
	 viewBox="0 0 100 100" style="enable-background:new 0 0 100 100;" xml:space="preserve">
<style type="text/css">
	.st0{fill:#010101;}
</style>
<g>
	<polygon class="st0" points="21.875,95 47.188,95 47.188,44.375 29.787,44.375 	"/>
	<polygon class="st0" points="47.188,5 35.938,5 32.422,27.5 47.188,27.5 	"/>
	<polygon class="st0" points="52.813,44.375 52.813,95 78.125,95 70.216,44.375 	"/>
	<polygon class="st0" points="64.063,5 52.813,5 52.813,27.5 67.578,27.5 	"/>
	<path class="st0" d="M83.751,30.312h-67.5c-3.105,0-5.625,2.52-5.625,5.625v2.812c0,1.555,1.257,2.812,2.812,2.812h2.812v5.625
		c0,1.555,1.257,2.812,2.812,2.812c1.555,0,2.812-1.257,2.812-2.812v-5.625h56.25v5.625c0,1.555,1.257,2.812,2.813,2.812
		c1.555,0,2.813-1.257,2.813-2.812v-5.625h2.812c1.555,0,2.812-1.257,2.812-2.812v-2.812C89.375,32.832,86.855,30.312,83.751,30.312
		z"/>
</g>
</svg>
