<?xml version="1.0" encoding="utf-8"?>
<!-- Generator: Adobe Illustrator 21.0.0, SVG Export Plug-In . SVG Version: 6.00 Build 0)  -->
<svg version="1.1" id="Layer_1" xmlns="http://www.w3.org/2000/svg" xmlns:xlink="http://www.w3.org/1999/xlink" x="0px" y="0px"
	 viewBox="0 0 100 100" style="enable-background:new 0 0 100 100;" xml:space="preserve">
<style type="text/css">
	.st0{fill:#010101;}
</style>
<g transform="translate(0,-952.36218)">
	<path class="st0" d="M49.852,957.372c-0.61,0.076-1.06,0.607-1.036,1.22v22.489H12.023c-3.258,0-5.918,2.66-5.918,5.918v54.446
		c0,3.258,2.66,5.918,5.918,5.918h76.954c3.258,0,5.918-2.66,5.918-5.918v-54.446c0-3.258-2.66-5.918-5.918-5.918H57.102
		c-0.654-0.009-1.191,0.513-1.201,1.167c-0.009,0.654,0.514,1.191,1.167,1.2c0.011,0,0.022,0,0.033,0h31.875
		c1.987,0,3.551,1.563,3.551,3.551v54.446c0,1.987-1.563,3.551-3.551,3.551H12.023c-1.988,0-3.551-1.563-3.551-3.551v-54.446
		c0-1.988,1.563-3.551,3.551-3.551H50c0.654,0,1.184-0.53,1.184-1.184v-23.672c0.026-0.653-0.483-1.204-1.136-1.229
		C49.982,957.361,49.917,957.363,49.852,957.372z M15.536,990.549c-0.566,0.108-0.972,0.607-0.961,1.184v44.977
		c0,0.654,0.53,1.184,1.184,1.184h69.485c0.654,0,1.184-0.53,1.184-1.184v-44.977c0-0.654-0.53-1.184-1.184-1.184H15.758
		C15.684,990.543,15.61,990.543,15.536,990.549z M16.941,992.916h8.836v11.836h-8.836V992.916z M28.145,992.916h9.653v11.836h-9.653
		V992.916z M40.164,992.916h8.653v11.836h-8.653V992.916z M51.184,992.916h8.653v11.836h-8.653V992.916z M62.203,992.916h9.653
		v11.836h-9.653V992.916z M74.223,992.916h9.836v28.407H62.203v-14.203h10.836c0.654,0,1.184-0.53,1.184-1.184L74.223,992.916
		L74.223,992.916z M16.941,1007.12h8.836v14.203h-8.836V1007.12z M28.145,1007.12h9.653v14.203h-9.653V1007.12z M40.164,1007.12
		h8.653v14.203h-8.653V1007.12z M51.184,1007.12h8.653v14.203h-8.653V1007.12z M16.941,1023.69h8.836v11.836h-8.836V1023.69z
		 M28.145,1023.69h43.711v11.836H28.145V1023.69z M74.223,1023.69h9.836v11.836h-9.836V1023.69z"/>
</g>
</svg>
