<?xml version="1.0" encoding="utf-8"?>
<!-- Generator: Adobe Illustrator 21.0.0, SVG Export Plug-In . SVG Version: 6.00 Build 0)  -->
<svg version="1.1" id="Layer_1" xmlns="http://www.w3.org/2000/svg" xmlns:xlink="http://www.w3.org/1999/xlink" x="0px" y="0px"
	 viewBox="0 0 100 100" style="enable-background:new 0 0 100 100;" xml:space="preserve">
<style type="text/css">
	.st0{fill:#010101;}
</style>
<g>
	<path class="st0" d="M65.156,31.04c1.646,2.186,2.888,4.974,3.747,8.391v-3.27v-1.806v-6.658h-0.597
		c-0.301,0-0.591,0.05-0.864,0.138c-0.525,0.089-1.171,0.257-1.895,0.574c-0.572,0.245-1.177,0.589-1.791,1.039
		C64.224,29.905,64.695,30.43,65.156,31.04z"/>
	<rect x="71.19" y="27.698" class="st0" width="8.186" height="6.658"/>
	<path class="st0" d="M85.017,28.411c-0.722-0.317-1.367-0.484-1.891-0.574c-0.273-0.089-0.564-0.139-0.866-0.139h-0.596v6.658
		v1.806v17.577H70.342c-0.009,1.752-0.064,3.578-0.166,5.444c-0.127,2.296-2.026,4.095-4.325,4.095
		c-0.077,0-0.152-0.002-0.228-0.006c-0.037-0.002-0.071-0.008-0.107-0.011v27.274c0,2.467,1.999,4.465,4.465,4.465
		c2.466,0,4.465-1.998,4.465-4.465V57.981h1.675v32.554c0,2.467,1.999,4.465,4.465,4.465c2.466,0,4.465-1.998,4.465-4.465V35.943
		c0.133,0.202,0.267,0.415,0.405,0.654c1.46,2.59,2.955,7.622,2.947,16.712c0.001,1.684-0.05,3.506-0.158,5.477
		c-0.088,1.593,1.132,2.956,2.726,3.044c0.054,0.003,0.107,0.005,0.16,0.005c1.523,0,2.798-1.192,2.883-2.731
		c0.114-2.069,0.167-3.996,0.167-5.794c-0.011-11.425-2.132-17.723-4.897-21.397C87.907,30.089,86.353,28.991,85.017,28.411z"/>
	<path class="st0" d="M67.156,17.158c0,4.488,3.638,8.126,8.126,8.126c4.488,0,8.126-3.638,8.126-8.126
		c0-0.396-0.03-0.784-0.084-1.165H67.241C67.186,16.374,67.156,16.762,67.156,17.158z"/>
	<path class="st0" d="M66.784,13.091c-0.602,0-1.09,0.488-1.09,1.09c0,0.602,0.488,1.09,1.09,1.09h0.145h16.707h0.145
		c0.602,0,1.09-0.488,1.09-1.09c0-0.602-0.488-1.09-1.09-1.09h-0.151c-0.006-0.243-0.022-0.485-0.049-0.722
		c-0.278-2.475-1.635-4.623-3.591-5.96v0.667c0,0.476-0.386,0.863-0.863,0.863c-0.477,0-0.863-0.386-0.863-0.863v-1.57
		C77.596,5.25,76.885,5.076,76.145,5v2.076c0,0.476-0.386,0.863-0.863,0.863c-0.476,0-0.862-0.386-0.862-0.863V5
		c-0.74,0.076-1.451,0.25-2.121,0.507v1.569c0,0.476-0.386,0.863-0.863,0.863c-0.476,0-0.862-0.386-0.862-0.863V6.409
		c-1.957,1.338-3.314,3.485-3.591,5.96c-0.027,0.238-0.042,0.479-0.049,0.722H66.784z"/>
	<path class="st0" d="M31.1,34.356v1.806v3.241c0.446-1.762,0.995-3.361,1.65-4.805c1.046-2.326,2.295-3.974,3.495-5.145
		c-0.616-0.449-1.224-0.796-1.791-1.043c-0.722-0.317-1.367-0.484-1.891-0.574c-0.273-0.089-0.564-0.139-0.866-0.139h-0.597
		L31.1,34.356L31.1,34.356L31.1,34.356z"/>
	<rect x="20.627" y="27.698" class="st0" width="8.186" height="6.658"/>
	<path class="st0" d="M34.151,63.277c-2.296,0-4.196-1.797-4.325-4.092c-0.105-1.873-0.159-3.7-0.168-5.446H18.339V36.162v-1.806
		v-6.658h-0.597c-0.302,0-0.591,0.05-0.864,0.138c-0.525,0.089-1.171,0.257-1.894,0.574c-2.02,0.865-4.461,2.919-6.2,6.786
		c-1.759,3.874-2.961,9.532-2.966,18.113c0,1.798,0.053,3.726,0.169,5.795c0.086,1.538,1.361,2.729,2.882,2.729
		c0.054,0,0.109-0.002,0.163-0.005c1.593-0.089,2.814-1.453,2.725-3.046c-0.11-1.97-0.16-3.791-0.159-5.474
		c-0.01-9.954,1.785-15.011,3.355-17.388v54.614c0,2.467,1.999,4.465,4.465,4.465s4.465-1.998,4.465-4.465V57.981h1.675v32.554
		c0,2.467,1.999,4.465,4.465,4.465s4.465-1.998,4.465-4.465V63.262c-0.031,0.002-0.062,0.008-0.093,0.01
		C34.304,63.276,34.226,63.277,34.151,63.277z"/>
	<path class="st0" d="M16.593,17.158c0,4.488,3.639,8.126,8.126,8.126c4.488,0,8.126-3.638,8.126-8.126
		c0-0.396-0.03-0.784-0.084-1.165H16.677C16.623,16.374,16.593,16.762,16.593,17.158z"/>
	<path class="st0" d="M16.372,13.091h-0.151c-0.602,0-1.09,0.488-1.09,1.09c0,0.602,0.488,1.09,1.09,1.09h0.145h16.707h0.145
		c0.602,0,1.09-0.488,1.09-1.09c0-0.602-0.488-1.09-1.09-1.09h-0.151c-0.007-0.243-0.022-0.485-0.049-0.722
		c-0.278-2.475-1.635-4.623-3.591-5.96v0.667c0,0.476-0.386,0.863-0.863,0.863c-0.476,0-0.862-0.386-0.862-0.863v-1.57
		C27.033,5.25,26.322,5.076,25.582,5v2.076c0,0.476-0.386,0.863-0.863,0.863c-0.476,0-0.862-0.386-0.862-0.863V5
		c-0.74,0.076-1.451,0.25-2.121,0.507v1.569c0,0.476-0.386,0.863-0.863,0.863c-0.476,0-0.862-0.386-0.862-0.863V6.409
		c-1.957,1.338-3.314,3.485-3.591,5.96C16.394,12.607,16.378,12.848,16.372,13.091z"/>
	<rect x="45.908" y="27.698" class="st0" width="8.186" height="6.658"/>
	<path class="st0" d="M59.769,35.942c0.133,0.202,0.267,0.415,0.405,0.654c1.46,2.59,2.955,7.622,2.948,16.712
		c0.001,1.684-0.05,3.506-0.158,5.477c-0.088,1.593,1.133,2.956,2.726,3.044c0.054,0.003,0.107,0.005,0.16,0.005
		c1.523,0,2.798-1.192,2.883-2.731c0.114-2.069,0.167-3.996,0.167-5.794c-0.011-11.425-2.131-17.723-4.897-21.397
		c-1.378-1.822-2.932-2.92-4.267-3.501c-0.722-0.317-1.367-0.484-1.891-0.574c-0.273-0.089-0.564-0.139-0.866-0.139h-0.597v6.658
		v1.806v17.577h-12.76V36.162v-1.806v-6.658h-0.597c-0.302,0-0.592,0.05-0.864,0.138c-0.525,0.089-1.17,0.257-1.894,0.574
		c-2.02,0.865-4.461,2.919-6.2,6.786c-1.76,3.874-2.962,9.533-2.967,18.113c0,1.798,0.053,3.726,0.169,5.795
		c0.086,1.538,1.361,2.729,2.882,2.729c0.054,0,0.109-0.002,0.163-0.005c1.593-0.089,2.813-1.453,2.724-3.046
		c-0.11-1.97-0.16-3.791-0.159-5.474c-0.01-9.954,1.785-15.011,3.355-17.388v54.614c0,2.467,1.999,4.465,4.465,4.465
		s4.465-1.998,4.465-4.465V57.981h1.675v32.554c0,2.467,1.999,4.465,4.465,4.465s4.465-1.998,4.465-4.465L59.769,35.942
		L59.769,35.942z"/>
	<path class="st0" d="M41.875,17.158c0,4.488,3.639,8.126,8.126,8.126c4.488,0,8.126-3.638,8.126-8.126
		c0-0.396-0.03-0.784-0.084-1.165H41.959C41.904,16.374,41.875,16.762,41.875,17.158z"/>
	<path class="st0" d="M41.502,13.091c-0.602,0-1.09,0.488-1.09,1.09c0,0.602,0.488,1.09,1.09,1.09h0.145h16.707H58.5
		c0.602,0,1.09-0.488,1.09-1.09c0-0.602-0.488-1.09-1.09-1.09h-0.151c-0.007-0.243-0.022-0.485-0.049-0.722
		c-0.278-2.475-1.635-4.623-3.591-5.96v0.667c0,0.476-0.386,0.863-0.863,0.863c-0.476,0-0.862-0.386-0.862-0.863v-1.57
		C52.314,5.25,51.604,5.076,50.863,5v2.076c0,0.476-0.386,0.863-0.863,0.863c-0.476,0-0.862-0.386-0.862-0.863V5
		c-0.74,0.076-1.451,0.25-2.121,0.507v1.569c0,0.476-0.386,0.863-0.863,0.863c-0.476,0-0.862-0.386-0.862-0.863V6.409
		c-1.956,1.338-3.314,3.485-3.591,5.96c-0.027,0.238-0.042,0.479-0.049,0.722H41.502z"/>
</g>
</svg>
