<?xml version="1.0" encoding="utf-8"?>
<!-- Generator: Adobe Illustrator 16.0.4, SVG Export Plug-In . SVG Version: 6.00 Build 0)  -->
<!DOCTYPE svg PUBLIC "-//W3C//DTD SVG 1.1//EN" "http://www.w3.org/Graphics/SVG/1.1/DTD/svg11.dtd">
<svg version="1.1" id="Layer_1" xmlns="http://www.w3.org/2000/svg" xmlns:xlink="http://www.w3.org/1999/xlink" x="0px" y="0px"
	 width="515.91px" height="377.01px" viewBox="0 0 515.91 377.01" enable-background="new 0 0 515.91 377.01" xml:space="preserve">
<title>offices</title>
<path d="M382.309,288.308V35.378c0-10.361-8.4-18.76-18.761-18.76c-0.01,0-0.021,0-0.03,0h-16.559v-5.489
	c0-2.065-1.674-3.74-3.739-3.74H226.286c-2.065,0-3.74,1.674-3.74,3.74l0,0v5.489h-16.588c-10.361,0-18.76,8.399-18.76,18.76v76.548
	h44.095c1.299,0,2.353,1.053,2.353,2.353v3.348h10.345c6.463,0,11.702,5.239,11.702,11.703l0,0v153.398h9.711v-39.451h38.727v50.941
	h101.612v-6.031L382.309,288.308z M247.218,92.714h-38.756V41.894h38.756V92.714z M304.131,231.997h-38.756v-50.821h38.756V231.997z
	 M304.131,162.355h-38.756v-50.761h38.756V162.355z M304.131,92.714h-38.756V41.894h38.756V92.714z M361.045,231.997h-38.787
	v-50.821h38.787V231.997z M361.045,162.355h-38.787v-50.761h38.787V162.355z M361.045,92.714h-38.787V41.894h38.787V92.714z"/>
<path d="M246.403,288.88V138.74c0-6.463-5.239-11.703-11.702-11.703l0,0h-10.315v-3.559c0-1.299-1.053-2.353-2.353-2.353h-72.869
	c-1.299,0-2.353,1.053-2.353,2.353v3.408h-10.345c-6.463,0.016-11.689,5.269-11.673,11.732c0,0.041,0,0.081,0.001,0.122v150.14
	h-14.628v5.338h63.337v-50.941h24.128v50.941h63.337v-5.338H246.403z M162.225,266.953h-24.128v-31.699h24.128V266.953z
	 M162.225,223.552h-24.128v-31.699h24.128V223.552z M162.225,180.15h-24.128v-31.729h24.128V180.15z M197.633,223.521h-24.128
	v-31.669h24.128V223.521z M197.633,180.12h-24.128v-31.699h24.128V180.12z M233.163,250.335v16.467h-24.129v-31.548h24.129V250.335z
	 M233.163,199.514v23.888h-24.129v-31.549h24.129V199.514z M233.163,180h-24.129v-31.578h24.129V180z"/>
</svg>
