<?xml version="1.0" encoding="utf-8"?>
<!-- Generator: Adobe Illustrator 16.0.4, SVG Export Plug-In . SVG Version: 6.00 Build 0)  -->
<!DOCTYPE svg PUBLIC "-//W3C//DTD SVG 1.1//EN" "http://www.w3.org/Graphics/SVG/1.1/DTD/svg11.dtd">
<svg version="1.1"
	 id="Layer_1" xmlns:inkscape="http://www.inkscape.org/namespaces/inkscape" xmlns:sodipodi="http://sodipodi.sourceforge.net/DTD/sodipodi-0.dtd" xmlns:svg="http://www.w3.org/2000/svg" xmlns:rdf="http://www.w3.org/1999/02/22-rdf-syntax-ns#" xmlns:cc="http://creativecommons.org/ns#" xmlns:dc="http://purl.org/dc/elements/1.1/"
	 xmlns="http://www.w3.org/2000/svg" xmlns:xlink="http://www.w3.org/1999/xlink" x="0px" y="0px" width="515.91px"
	 height="377.01px" viewBox="0 0 515.91 377.01" enable-background="new 0 0 515.91 377.01" xml:space="preserve">
<g transform="translate(0,-952.36218)">
	<path d="M257.955,970.459c21.589,0,43.295,8.233,59.756,24.694c12.242,12.241,19.662,27.427,22.809,43.262
		c31.943,6.196,56.175,34.093,56.175,67.767c0,38.205-31.165,69.37-69.37,69.37h-33.176c-4.998,0.071-9.105-3.923-9.177-8.92
		c-0.07-4.997,3.923-9.105,8.921-9.177c0.085-0.001,0.17-0.001,0.256,0h33.176c28.425,0,51.273-22.849,51.273-51.273
		c0-26.843-20.414-48.711-46.561-51.084c-4.224-0.412-7.594-3.704-8.105-7.917c-1.664-14.341-8.011-28.275-19.039-39.303
		c-12.986-12.985-29.932-19.322-46.938-19.322c-17.005,0-33.845,6.323-46.843,19.322c-15.021,15.021-21.378,35.429-19.04,54.949
		c0.625,4.958-2.889,9.484-7.848,10.108c-0.367,0.046-0.736,0.07-1.105,0.071h-3.582c-23.549,0-42.225,18.676-42.225,42.225
		c0,23.549,18.676,42.225,42.225,42.225h42.225c4.997-0.07,9.105,3.924,9.176,8.921c0.07,4.997-3.923,9.105-8.92,9.176
		c-0.085,0.001-0.17,0.001-0.256,0h-42.225c-33.262,0-60.322-27.06-60.322-60.321c0-31.392,24.184-56.947,54.855-59.756
		c-0.142-21.834,7.613-43.712,24.223-60.322C214.74,978.706,236.366,970.459,257.955,970.459z M257.955,1109.198
		c4.998,0,9.049,4.051,9.049,9.048v88.126l18.002-16.4c3.509-3.181,9.62-2.928,12.818,0.565c3.197,3.493,3.266,9.263-0.566,12.818
		l-33.176,30.161c-1.516,1.385-3.11,2.355-6.127,2.355s-4.334-0.715-6.126-2.355l-33.177-30.161
		c-3.478-3.215-4.13-9.325-0.566-12.818c3.383-3.314,9.31-3.746,12.818-0.565l18.002,16.4v-88.126
		C248.907,1113.25,252.957,1109.198,257.955,1109.198L257.955,1109.198z"/>
</g>
</svg>
