<?xml version="1.0" encoding="utf-8"?>
<!-- Generator: Adobe Illustrator 16.0.4, SVG Export Plug-In . SVG Version: 6.00 Build 0)  -->
<!DOCTYPE svg PUBLIC "-//W3C//DTD SVG 1.1//EN" "http://www.w3.org/Graphics/SVG/1.1/DTD/svg11.dtd">
<svg version="1.1" id="Layer_1" xmlns="http://www.w3.org/2000/svg" xmlns:xlink="http://www.w3.org/1999/xlink" x="0px" y="0px"
	 width="515.91px" height="377.01px" viewBox="0 0 515.91 377.01" enable-background="new 0 0 515.91 377.01" xml:space="preserve">
<title>Artboard 14</title>
<path d="M403.3,147.004h-3.589L364.182,73.14c6.842-5.891,7.611-16.212,1.721-23.054c-5.891-6.842-16.213-7.612-23.054-1.722
	c-1.229,1.058-2.292,2.292-3.157,3.663L324.61,40.325c-14.302-11.084-32.78-15.259-50.459-11.401
	c-1.282-8.937-9.567-15.142-18.504-13.858c-7.184,1.031-12.827,6.675-13.858,13.858c-17.73-3.871-36.263,0.34-50.58,11.491
	l-15.081,11.702c-4.818-7.635-14.914-9.918-22.549-5.099c-7.635,4.818-9.918,14.914-5.1,22.549c0.865,1.371,1.93,2.605,3.158,3.663
	l-35.439,73.773h-3.589c-2.315,0.009-4.185,1.894-4.175,4.209c0,0.105,0.005,0.21,0.013,0.315
	c2.54,29.742,28.709,51.793,58.451,49.252c26.218-2.238,47.014-23.034,49.253-49.252c0.183-2.308-1.54-4.328-3.848-4.511
	c-0.104-0.008-0.209-0.013-0.314-0.013h-3.559l-35.62-73.864l0.302-0.271l19.001-11.612c12.509-7.625,27.928-8.748,41.411-3.016
	c1.964,0.719,3.98,1.283,6.032,1.689v178.13l-76.639,24.34c-5.086,1.57-8.542,6.288-8.505,11.611v0.784
	c0,6.663,5.401,12.064,12.064,12.064h182.835c6.662,0,12.064-5.401,12.064-12.064v-0.935c-0.013-5.235-3.4-9.865-8.385-11.461
	l-76.549-24.129V59.869c2.052-0.406,4.068-0.971,6.032-1.689c13.482-5.731,28.901-4.608,41.411,3.016l19.001,11.612l0.302,0.271
	l-35.711,73.924h-3.498c-2.315,0.009-4.185,1.894-4.176,4.209c0.001,0.105,0.006,0.21,0.014,0.315
	c2.636,29.733,28.876,51.7,58.609,49.065c26.08-2.312,46.753-22.985,49.064-49.065c0.184-2.308-1.539-4.328-3.848-4.511
	C403.53,147.008,403.415,147.003,403.3,147.004z M190.847,147.004h-57.305l28.592-59.327L190.847,147.004z M325.033,147.004
	l28.592-59.327l28.592,59.327H325.033z"/>
</svg>
