<?xml version="1.0" encoding="utf-8"?>
<!-- Generator: Adobe Illustrator 16.0.4, SVG Export Plug-In . SVG Version: 6.00 Build 0)  -->
<!DOCTYPE svg PUBLIC "-//W3C//DTD SVG 1.1//EN" "http://www.w3.org/Graphics/SVG/1.1/DTD/svg11.dtd">
<svg version="1.1" id="Layer_1" xmlns="http://www.w3.org/2000/svg" xmlns:xlink="http://www.w3.org/1999/xlink" x="0px" y="0px"
	 width="515.91px" height="377.01px" viewBox="0 0 515.91 377.01" enable-background="new 0 0 515.91 377.01" xml:space="preserve">
<g>
	<path d="M404.989,288.413h-26.392V145.149h26.392v-33.931H112.806v33.931h20.736v143.264h-20.736v32.045h-18.85v33.932h327.998
		v-33.932h-16.965V288.413z M239.104,288.413V145.149h35.815v143.264H239.104z M344.668,288.413h-35.816V145.149h35.816V288.413z
		 M167.473,145.149h35.816v143.264h-35.816V145.149z"/>
	<polygon points="421.954,67.862 421.954,67.862 421.954,67.862 421.954,67.862 257.955,26.391 93.956,67.862 93.956,67.862 
		93.956,67.862 93.956,67.862 93.956,67.862 93.956,101.792 421.954,101.792 	"/>
</g>
</svg>
