<?xml version="1.0" encoding="utf-8"?>
<!-- Generator: Adobe Illustrator 16.0.4, SVG Export Plug-In . SVG Version: 6.00 Build 0)  -->
<!DOCTYPE svg PUBLIC "-//W3C//DTD SVG 1.1//EN" "http://www.w3.org/Graphics/SVG/1.1/DTD/svg11.dtd">
<svg version="1.1"
	 id="Layer_1" xmlns:dc="http://purl.org/dc/elements/1.1/" xmlns:cc="http://creativecommons.org/ns#" xmlns:sodipodi="http://sodipodi.sourceforge.net/DTD/sodipodi-0.dtd" xmlns:svg="http://www.w3.org/2000/svg" xmlns:rdf="http://www.w3.org/1999/02/22-rdf-syntax-ns#" xmlns:inkscape="http://www.inkscape.org/namespaces/inkscape"
	 xmlns="http://www.w3.org/2000/svg" xmlns:xlink="http://www.w3.org/1999/xlink" x="0px" y="0px" width="515.91px"
	 height="377.01px" viewBox="0 0 515.91 377.01" enable-background="new 0 0 515.91 377.01" xml:space="preserve">
<g transform="translate(-165.363,-342.51957)">
	<path d="M455.72,342.539c-3.357,0.186-6.598,1.6-9.01,4.299l-10.777,11.955l74.676,67.02l10.719-11.896
		c4.854-5.397,4.396-13.727-1-18.551l-55.065-49.47c-2.698-2.428-6.183-3.538-9.54-3.357H455.72z M436.993,371.102l-69.14,76.973
		l61.249,55.005l17.139-19.14c3.467-3.86,9.449-4.174,13.309-0.706l94.464,84.805c6.151,5.549,15.632,6.424,22.085,1.237
		c8.201-6.634,8.274-18.628,0.764-25.383l-95.053-85.453c-3.859-3.407-4.232-9.302-0.764-13.192l17.197-19.14L436.993,371.102
		L436.993,371.102z M355.544,448.369l-10.717,11.955c-4.855,5.397-4.456,13.667,0.942,18.492l55.123,49.529
		c5.397,4.854,13.727,4.396,18.552-1l10.718-11.956L355.544,448.369L355.544,448.369z M326.098,554.847
		c-10.613,0-19.199,8.584-19.199,19.198v16.844h165.018v-16.844h-0.051c0-10.614-8.585-19.198-19.199-19.198h-126.56H326.098z
		 M264.261,608.085v19.847c0,8.925,7.211,16.196,16.136,16.196h217.903c8.926,0,16.137-7.271,16.137-16.196v-19.847H264.261z"/>
</g>
</svg>
