<?xml version="1.0" encoding="utf-8"?>
<!-- Generator: Adobe Illustrator 16.0.4, SVG Export Plug-In . SVG Version: 6.00 Build 0)  -->
<!DOCTYPE svg PUBLIC "-//W3C//DTD SVG 1.1//EN" "http://www.w3.org/Graphics/SVG/1.1/DTD/svg11.dtd">
<svg version="1.1"
	 id="Layer_1" xmlns:dc="http://purl.org/dc/elements/1.1/" xmlns:cc="http://creativecommons.org/ns#" xmlns:sodipodi="http://sodipodi.sourceforge.net/DTD/sodipodi-0.dtd" xmlns:svg="http://www.w3.org/2000/svg" xmlns:rdf="http://www.w3.org/1999/02/22-rdf-syntax-ns#" xmlns:inkscape="http://www.inkscape.org/namespaces/inkscape"
	 xmlns="http://www.w3.org/2000/svg" xmlns:xlink="http://www.w3.org/1999/xlink" x="0px" y="0px" width="515.91px"
	 height="377.01px" viewBox="0 0 515.91 377.01" enable-background="new 0 0 515.91 377.01" xml:space="preserve">
<path d="M194.681,0c-9.34,0-17.476,5.725-17.476,14.764c0,15.969,24.708,41.882,29.528,41.882h102.445
	c4.218,0,15.365-13.257,18.078-16.873c4.52-6.327,11.449-15.065,11.449-25.009C338.705,3.917,329.063,0,318.518,0
	c-21.996,0-42.183,20.188-61.768,20.188C242.287,20.188,219.991,0,194.681,0z M210.951,65.986c-6.327,0-9.642,3.013-9.642,9.34
	c0,6.328,3.314,9.643,9.642,9.643h94.008c12.956,0,12.956-18.983,0-18.983H210.951z M206.733,94.309
	c-5.423,0-25.913,22.296-29.528,26.816c-4.218,5.725-8.135,10.245-12.052,16.271c-17.174,25.912-39.17,67.794-39.17,103.65v9.34
	c0,40.676,36.157,51.223,76.833,51.223h110.278c40.979,0,76.834-10.547,76.834-51.223c0-45.195-21.694-97.322-50.921-129.562
	c-14.463-16.271-9.943-10.244-21.394-21.393c-3.013-3.013-4.52-5.122-9.942-5.122H206.733z M249.82,111.785h16.27v14.764
	c9.643,0.904,17.176,4.218,22.599,9.642c5.122,5.423,11.751,12.353,12.354,21.392c-7.231,1.808-14.161,6.328-21.394,8.135
	c-2.711-4.821-3.314-7.833-7.23-12.052c-13.559-14.463-29.227-3.314-29.227,6.628c0,22.297,33.445,16.874,52.729,37.362
	c18.982,19.585,9.943,66.287-29.83,66.287v20.188h-16.27c0-21.995,1.507-18.682-5.122-20.488
	c-8.135-2.109-12.053-1.809-20.188-9.341c-6.026-5.726-13.559-15.667-13.559-26.815c8.738-0.604,14.764-5.123,24.105-5.123
	c2.109,23.803,41.881,29.829,41.881,2.41c0-22.297-62.069-11.148-62.069-59.056c0-21.393,15.065-37.361,34.952-39.169V111.785z"/>
</svg>
