<?xml version="1.0" encoding="utf-8"?>
<!-- Generator: Adobe Illustrator 16.0.4, SVG Export Plug-In . SVG Version: 6.00 Build 0)  -->
<!DOCTYPE svg PUBLIC "-//W3C//DTD SVG 1.1//EN" "http://www.w3.org/Graphics/SVG/1.1/DTD/svg11.dtd">
<svg version="1.1" id="Layer_1" xmlns="http://www.w3.org/2000/svg" xmlns:xlink="http://www.w3.org/1999/xlink" x="0px" y="0px"
	 width="515.91px" height="377.01px" viewBox="0 0 515.91 377.01" enable-background="new 0 0 515.91 377.01" xml:space="preserve">
<g>
	<path d="M324.309,277.479h-46.734h-3.043H134.296V24.128h190.013v115.993l21.113-37.831V24.605
		c0-11.953-8.355-21.589-20.308-21.589H133.415c-11.95,0-20.232,9.636-20.232,21.589v253.716c0,11.949,8.282,20.271,20.232,20.271
		h191.699c11.952,0,20.308-8.321,20.308-20.271v-69.51l-21.113,37.831V277.479z"/>
	<rect x="152.393" y="57.306" width="117.627" height="15.08"/>
	<rect x="152.393" y="126.675" width="117.627" height="15.081"/>
	<rect x="152.393" y="93.499" width="153.82" height="15.08"/>
	<rect x="152.393" y="162.868" width="153.82" height="15.081"/>
	<rect x="152.393" y="196.045" width="117.627" height="15.081"/>
	<polygon points="377.682,79.024 371.963,88.98 369.496,93.278 390.693,105.451 393.16,101.156 398.878,91.197 	"/>
	<polygon points="288.115,230.999 288.115,256.366 309.904,243.175 384.941,113.329 363.744,101.156 	"/>
	<circle cx="166.278" cy="246.181" r="14.646"/>
	<circle cx="212.744" cy="246.362" r="14.646"/>
</g>
</svg>
