<?xml version="1.0" encoding="utf-8"?>
<!-- Generator: Adobe Illustrator 16.0.4, SVG Export Plug-In . SVG Version: 6.00 Build 0)  -->
<!DOCTYPE svg PUBLIC "-//W3C//DTD SVG 1.1//EN" "http://www.w3.org/Graphics/SVG/1.1/DTD/svg11.dtd">
<svg version="1.1" id="Layer_1" xmlns="http://www.w3.org/2000/svg" xmlns:xlink="http://www.w3.org/1999/xlink" x="0px" y="0px"
	 width="515.91px" height="377.01px" viewBox="0 0 515.91 377.01" enable-background="new 0 0 515.91 377.01" xml:space="preserve">
<g>
	<path d="M367.288,88.283c-9.111-15.395-34.245-18.851-66.291-11.311c-9.425-31.103-25.134-50.896-43.042-50.896
		c-17.908,0-33.617,19.793-43.042,50.896c-32.046-7.226-57.18-3.77-66.291,11.311c-3.77,6.598-4.398,14.138-2.199,23.249
		c3.142,11.938,12.253,25.762,25.134,39.271c-13.195,13.51-21.992,27.333-25.134,39.271c-2.513,9.111-1.571,16.652,2.199,23.25
		c5.97,10.367,19.165,15.395,36.759,15.395c8.797,0,18.851-1.258,29.532-3.771c9.425,31.104,25.134,50.896,43.042,50.896
		c17.908,0,33.617-19.794,43.042-50.896c10.683,2.513,20.735,3.771,29.532,3.771c17.594,0,30.789-5.027,36.759-15.395
		c3.771-6.598,4.398-14.139,2.199-23.25c-3.142-11.938-12.253-25.762-25.134-39.271c13.195-13.509,21.992-27.333,25.134-39.271
		C372,102.421,371.372,94.566,367.288,88.283z M257.955,36.758c13.51,0,24.82,17.908,32.359,42.728
		c-10.367,3.142-21.363,7.226-32.359,11.938c-11.31-5.027-21.992-9.111-32.36-11.938C233.135,54.352,244.446,36.758,257.955,36.758z
		 M300.369,150.804c0,7.854-0.314,15.709-0.943,23.563c-6.283,4.398-13.195,8.482-20.107,12.567
		c-6.911,3.77-13.823,7.54-21.363,10.997c-7.226-3.143-14.452-7.227-21.364-10.997c-7.226-4.084-13.51-8.168-20.107-12.567
		c-0.942-7.854-0.942-15.709-0.942-23.563c0-7.854,0.314-15.708,0.942-23.563c6.284-4.398,13.195-8.483,20.107-12.567
		c6.912-3.77,13.824-7.54,21.364-10.996c7.227,3.142,14.452,7.226,21.363,10.996c7.227,4.084,13.51,8.168,20.107,12.567
		C300.055,135.095,300.369,142.95,300.369,150.804z M311.051,135.409c6.598,5.027,12.566,10.054,17.908,15.395
		c-5.342,5.341-11.311,10.368-17.908,15.395c0.314-5.026,0.314-10.053,0.314-15.395
		C311.051,145.463,311.051,140.436,311.051,135.409z M297.541,188.505c-0.942,7.854-2.514,15.709-4.398,22.621
		c-7.227-2.199-14.452-4.713-21.992-7.541c4.398-2.199,8.797-4.713,13.51-7.226C289.059,193.846,293.457,191.333,297.541,188.505z
		 M244.446,203.585c-7.226,3.143-14.767,5.342-21.993,7.541c-1.571-7.227-3.142-15.081-4.398-22.621
		c4.398,2.828,8.483,5.341,13.195,7.854C235.963,199.187,240.361,201.386,244.446,203.585z M204.859,166.198
		c-6.598-5.026-12.567-10.053-17.908-15.395c5.341-5.341,11.31-10.368,17.908-15.395c-0.314,5.027-0.314,10.054-0.314,15.395
		C204.859,156.145,204.859,161.172,204.859,166.198z M218.369,113.103c0.942-7.854,2.513-15.709,4.398-22.621
		c7.226,2.199,14.452,4.712,21.992,7.54c-4.398,2.199-8.797,4.713-13.51,7.226C226.852,107.762,222.453,110.275,218.369,113.103z
		 M284.346,105.249c-4.398-2.513-8.797-5.027-13.51-7.226c7.227-3.142,14.767-5.341,21.992-7.54
		c1.571,7.226,3.143,15.08,4.398,22.621C293.457,110.275,289.059,107.762,284.346,105.249z M157.733,93.624
		c4.084-7.226,13.509-10.054,26.077-10.054c8.168,0,17.594,1.257,27.961,3.771c-2.514,10.368-4.398,21.678-5.655,33.931
		c-10.054,7.226-19.165,14.452-27.019,21.992c-11.31-12.253-19.479-24.191-22.306-34.245
		C155.22,102.421,155.534,97.708,157.733,93.624z M157.733,207.983c-2.199-3.77-2.514-8.797-0.942-15.08
		c2.827-10.368,10.682-22.307,22.306-34.245c7.854,7.226,16.965,14.766,27.019,21.992c0.942,11.938,3.142,23.563,5.655,33.931
		C186.009,220.551,164.645,219.608,157.733,207.983z M257.955,264.85c-13.509,0-24.82-17.908-32.36-42.728
		c10.368-3.143,21.364-7.227,32.36-11.939c11.311,5.027,21.992,9.111,32.359,11.939C282.775,247.255,271.465,264.85,257.955,264.85z
		 M358.177,207.983c-6.911,11.625-27.962,12.253-54.038,6.283c2.514-10.367,4.398-21.678,5.655-33.93
		c10.054-7.226,19.165-14.452,27.019-21.992c11.311,12.252,19.479,24.191,22.307,34.245
		C360.69,199.187,360.376,203.899,358.177,207.983z M358.805,108.705c-2.827,10.368-10.682,22.306-22.306,34.245
		c-7.854-7.226-16.966-14.767-27.019-21.992c-0.943-11.939-3.143-23.563-5.656-33.931c10.368-2.513,19.793-3.77,27.962-3.77
		c12.567,0,21.992,3.142,26.077,10.054C360.376,97.708,360.69,102.421,358.805,108.705z"/>
	<path d="M257.955,130.382c-11.938,0-21.992,9.425-21.992,20.421s9.739,20.421,21.992,20.421s21.992-9.425,21.992-20.421
		S269.894,130.382,257.955,130.382z M257.955,160.229c-5.969,0-10.996-4.398-10.996-9.425c0-5.026,5.027-9.425,10.996-9.425
		c5.969,0,10.996,4.398,10.996,9.425C268.951,155.831,263.924,160.229,257.955,160.229z"/>
</g>
</svg>
