<?xml version="1.0" encoding="utf-8"?>
<!-- Generator: Adobe Illustrator 16.0.4, SVG Export Plug-In . SVG Version: 6.00 Build 0)  -->
<!DOCTYPE svg PUBLIC "-//W3C//DTD SVG 1.1//EN" "http://www.w3.org/Graphics/SVG/1.1/DTD/svg11.dtd">
<svg version="1.1" id="Layer_1" xmlns="http://www.w3.org/2000/svg" xmlns:xlink="http://www.w3.org/1999/xlink" x="0px" y="0px"
	 width="515.91px" height="377.01px" viewBox="0 0 515.91 377.01" enable-background="new 0 0 515.91 377.01" xml:space="preserve">
<g>
	<path d="M119.415,42.462c0-7.607,0-14.546,0-21.827c17.178,0,34.192,0,51.737,0c3.25,12.854,6.75,25.815,9.704,38.899
		c0.921,4.082,2.673,4.983,6.533,4.977c67.346-0.106,134.693-0.077,202.04-0.076c2.14,0,4.279,0,7.066,0
		c-0.502,2.314-0.79,4.166-1.309,5.951c-12.418,42.808-24.932,85.59-37.191,128.444c-1.184,4.139-2.984,5.143-7.058,5.132
		c-50.419-0.142-100.84-0.136-151.259-0.01c-4.027,0.01-5.849-0.821-6.917-5.161c-12.327-50.095-24.997-100.105-37.344-150.196
		c-1.146-4.65-2.762-6.511-7.782-6.263C138.482,42.787,129.292,42.462,119.415,42.462z"/>
	<path d="M234.586,240.532c10.962,0.052,20.003,9.063,20.061,19.996c0.06,11.212-9,20.398-20.161,20.443
		c-11.205,0.045-20.239-9.033-20.206-20.305C214.312,249.284,223.193,240.478,234.586,240.532z"/>
	<path d="M320.395,240.562c11.398-0.031,20.268,8.807,20.238,20.166c-0.029,11.076-8.883,20.136-19.784,20.244
		c-11.197,0.109-20.464-8.908-20.583-20.033C300.146,249.746,309.189,240.591,320.395,240.562z"/>
	<rect x="195.272" y="213.142" width="160.269" height="13.978"/>
</g>
</svg>
