<?xml version="1.0" encoding="utf-8"?>
<!-- Generator: Adobe Illustrator 16.0.4, SVG Export Plug-In . SVG Version: 6.00 Build 0)  -->
<!DOCTYPE svg PUBLIC "-//W3C//DTD SVG 1.1//EN" "http://www.w3.org/Graphics/SVG/1.1/DTD/svg11.dtd">
<svg version="1.1" id="Layer_1" xmlns="http://www.w3.org/2000/svg" xmlns:xlink="http://www.w3.org/1999/xlink" x="0px" y="0px"
	 width="515.91px" height="377.01px" viewBox="0 0 515.91 377.01" enable-background="new 0 0 515.91 377.01" xml:space="preserve">
<g>
	<path d="M266.857,325.635c0,0-162.114,0-163.372,0c-7.541,0-12.567,5.027-12.567,12.567v12.566h188.505v-12.566
		C279.424,330.662,274.396,325.635,266.857,325.635z"/>
	<path d="M116.053,306.784v-37.7c0-3.771-2.514-6.284-6.283-6.284c-3.77,0-6.284,2.515-6.284,6.284v37.7
		c0,3.771,2.514,6.284,6.284,6.284S116.053,310.555,116.053,306.784z"/>
	<path d="M141.188,306.784v-37.7c0-3.771-2.514-6.284-6.284-6.284s-6.284,2.515-6.284,6.284v37.7c0,3.771,2.514,6.284,6.284,6.284
		S141.188,310.555,141.188,306.784z"/>
	<path d="M166.321,306.784v-37.7c0-3.771-2.514-6.284-6.284-6.284s-6.283,2.515-6.283,6.284v37.7c0,3.771,2.513,6.284,6.283,6.284
		S166.321,310.555,166.321,306.784z"/>
	<path d="M191.455,306.784v-37.7c0-3.771-2.513-6.284-6.283-6.284s-6.284,2.515-6.284,6.284v37.7c0,3.771,2.514,6.284,6.284,6.284
		S191.455,310.555,191.455,306.784z"/>
	<path d="M216.589,306.784v-37.7c0-3.771-2.514-6.284-6.284-6.284s-6.283,2.515-6.283,6.284v37.7c0,3.771,2.513,6.284,6.283,6.284
		S216.589,310.555,216.589,306.784z"/>
	<path d="M241.723,306.784v-37.7c0-3.771-2.514-6.284-6.283-6.284c-3.77,0-6.284,2.515-6.284,6.284v37.7
		c0,3.771,2.514,6.284,6.284,6.284C239.209,313.068,241.723,310.555,241.723,306.784z"/>
	<path d="M266.857,306.784v-37.7c0-3.771-2.514-6.284-6.283-6.284c-3.77,0-6.284,2.515-6.284,6.284v37.7
		c0,3.771,2.514,6.284,6.284,6.284C264.344,313.068,266.857,310.555,266.857,306.784z"/>
	<path d="M141.188,111.996c6.937,0,12.567-5.617,12.567-12.567h18.851l6.283,10.055l-25.134,40.215h12.567l18.851-30.161
		l18.851,30.161h12.567l-25.134-40.215l6.284-10.055h18.851c0,6.95,5.63,12.567,12.567,12.567h25.134l25.134-50.268h-37.701
		c0-6.95-5.63-12.567-12.567-12.567h-12.567l-31.417,50.268l-31.417-50.268h-12.567c-6.937,0-12.567,5.617-12.567,12.567H90.923
		l25.134,50.268H141.188z"/>
	<polygon points="266.857,162.264 266.857,187.398 229.156,187.398 229.156,162.264 204.022,162.264 204.022,187.398 
		166.321,187.398 166.321,162.264 141.188,162.264 141.188,187.398 103.486,187.398 103.486,162.264 78.353,162.264 78.353,212.532 
		291.991,212.532 291.991,162.264 	"/>
	<path d="M90.919,237.666c0,7.54,5.026,12.566,12.567,12.566h160.857c1.257,0,1.257,0,2.513,0c7.541,0,12.567-5.026,12.567-12.566
		V225.1H90.918L90.919,237.666L90.919,237.666z"/>
</g>
</svg>
