<?xml version="1.0" encoding="utf-8"?>
<!-- Generator: Adobe Illustrator 16.0.4, SVG Export Plug-In . SVG Version: 6.00 Build 0)  -->
<!DOCTYPE svg PUBLIC "-//W3C//DTD SVG 1.1//EN" "http://www.w3.org/Graphics/SVG/1.1/DTD/svg11.dtd">
<svg version="1.1" id="Layer_1" xmlns="http://www.w3.org/2000/svg" xmlns:xlink="http://www.w3.org/1999/xlink" x="0px" y="0px"
	 width="515.91px" height="377.01px" viewBox="0 0 515.91 377.01" enable-background="new 0 0 515.91 377.01" xml:space="preserve">
<g>
	<g>
		<path d="M357.094,33.78H218.656c-3.649,0-6.636,2.986-6.636,6.635v11.853h6.032V40.416c0-0.332,0.271-0.604,0.604-0.604h138.438
			c0.332,0,0.604,0.271,0.604,0.604v177.828c0,0.332-0.271,0.604-0.604,0.604h-21.053v6.032h21.053c3.649,0,6.635-2.985,6.635-6.636
			V40.416C363.729,36.766,360.743,33.78,357.094,33.78z"/>
		<g>
			<path d="M331.518,63.428v177.797c0,3.65-2.986,6.636-6.636,6.636h-16.438v-6.032h16.438c0.332,0,0.603-0.271,0.603-0.604V63.428
				c0-0.332-0.271-0.604-0.603-0.604H186.444c-0.332,0-0.603,0.271-0.603,0.604v8.777h-6.032v-8.777
				c0-3.649,2.986-6.635,6.635-6.635h138.438C328.531,56.793,331.518,59.779,331.518,63.428z"/>
		</g>
	</g>
	<g>
		<path d="M272.04,111.082h-99.53c-1.237,0-2.262-1.025-2.262-2.262c0-1.237,1.025-2.262,2.262-2.262h99.048l0.06,3.257
			C271.617,110.268,271.769,110.72,272.04,111.082z"/>
	</g>
	<g>
		<path d="M282.566,129.088c0,1.267-1.025,2.262-2.262,2.262H172.51c-1.237,0-2.262-0.995-2.262-2.262
			c0-1.236,1.025-2.262,2.262-2.262h107.795C281.541,126.826,282.566,127.821,282.566,129.088z"/>
	</g>
	<g>
		<path d="M282.566,149.356c0,1.236-1.025,2.262-2.262,2.262H172.51c-1.237,0-2.262-1.025-2.262-2.262
			c0-1.267,1.025-2.262,2.262-2.262h107.795C281.541,147.094,282.566,148.12,282.566,149.356z"/>
	</g>
	<g>
		<path d="M282.566,169.624c0,1.237-1.025,2.262-2.262,2.262H172.51c-1.237,0-2.262-1.025-2.262-2.262
			c0-1.236,1.025-2.262,2.262-2.262h107.795C281.541,167.362,282.566,168.388,282.566,169.624z"/>
	</g>
	<g>
		<path d="M282.566,189.892c0,1.268-1.025,2.263-2.262,2.263H172.51c-1.237,0-2.262-0.995-2.262-2.263
			c0-1.236,1.025-2.261,2.262-2.261h107.795C281.541,187.63,282.566,188.656,282.566,189.892z"/>
	</g>
	<g>
		<path d="M282.566,210.16c0,1.237-1.025,2.263-2.262,2.263H172.51c-1.237,0-2.262-1.025-2.262-2.263
			c0-1.236,1.025-2.262,2.262-2.262h107.795C281.541,207.898,282.566,208.924,282.566,210.16z"/>
	</g>
	<g>
		<path d="M282.566,230.458c0,1.237-1.025,2.263-2.262,2.263H172.51c-1.237,0-2.262-1.025-2.262-2.263
			c0-1.236,1.025-2.262,2.262-2.262h107.795C281.541,228.196,282.566,229.192,282.566,230.458z"/>
	</g>
	<g>
		<path d="M232.137,250.727c0,1.267-1.025,2.263-2.262,2.263H172.51c-1.237,0-2.262-0.996-2.262-2.263
			c0-1.236,1.025-2.263,2.262-2.263h57.366C231.112,248.464,232.137,249.46,232.137,250.727z"/>
	</g>
	<g>
		<path d="M297.889,100.436l-17.705-17.674l-6.032-6.032H158.816c-3.649,0-6.635,2.986-6.635,6.635v177.828
			c0,3.649,2.986,6.635,6.635,6.635h138.438c3.65,0,6.637-2.985,6.637-6.635V106.468L297.889,100.436z M297.889,261.192
			c0,0.332-0.271,0.604-0.604,0.604H158.847c-0.332,0-0.603-0.271-0.603-0.604V83.364c0-0.332,0.271-0.603,0.603-0.603h113.736
			l-0.181,21.987l0.029,3.227c0,0.453,0.362,0.784,0.785,0.784c0.029,0,0.029,0,0.061,0l8.957-0.03l15.654-0.06V261.192z"/>
	</g>
</g>
</svg>
