<?xml version="1.0" encoding="utf-8"?>
<!-- Generator: Adobe Illustrator 16.0.4, SVG Export Plug-In . SVG Version: 6.00 Build 0)  -->
<!DOCTYPE svg PUBLIC "-//W3C//DTD SVG 1.1//EN" "http://www.w3.org/Graphics/SVG/1.1/DTD/svg11.dtd">
<svg version="1.1" id="Layer_1" xmlns="http://www.w3.org/2000/svg" xmlns:xlink="http://www.w3.org/1999/xlink" x="0px" y="0px"
	 width="515.91px" height="377.01px" viewBox="0 0 515.91 377.01" enable-background="new 0 0 515.91 377.01" xml:space="preserve">
<g>
	<polygon points="163.703,301.608 248.53,301.608 248.53,131.954 190.216,131.954 	"/>
	<polygon points="248.53,0 210.829,0 199.047,75.402 248.53,75.402 	"/>
	<polygon points="267.381,131.954 267.381,301.608 352.207,301.608 325.703,131.954 	"/>
	<polygon points="305.081,0 267.381,0 267.381,75.402 316.863,75.402 	"/>
	<path d="M371.059,84.827H144.852c-10.405,0-18.851,8.445-18.851,18.851v9.425c0,5.212,4.213,9.425,9.425,9.425h9.425v18.851
		c0,5.212,4.213,9.425,9.425,9.425c5.212,0,9.425-4.213,9.425-9.425v-18.851h188.504v18.851c0,5.212,4.213,9.425,9.426,9.425
		c5.212,0,9.426-4.213,9.426-9.425v-18.851h9.425c5.212,0,9.425-4.213,9.425-9.425v-9.425
		C389.908,93.272,381.463,84.827,371.059,84.827z"/>
</g>
</svg>
