<?xml version="1.0" encoding="utf-8"?><!DOCTYPE svg PUBLIC "-//W3C//DTD SVG 1.0//EN" "http://www.w3.org/TR/2001/REC-SVG-20010904/DTD/svg10.dtd"><svg version="1.0" xmlns="http://www.w3.org/2000/svg" xmlns:xlink="http://www.w3.org/1999/xlink" x="0px" y="0px" viewBox="0 0 100 99.999" enable-background="new 0 0 100 99.999" xml:space="preserve"><polygon points="87.457,42.199 57.801,42.199 57.801,12.543 42.2,12.543 42.2,42.199 12.544,42.199 12.544,57.8 42.2,57.8 
	42.2,87.456 57.801,87.456 57.801,57.8 87.457,57.8 "></polygon><path d="M50,99.999C22.429,99.999,0,77.57,0,50C0,22.43,22.429,0,50,0c27.57,0,50,22.43,50,50C100,77.57,77.571,99.999,50,99.999
	L50,99.999z M50,5.4c-24.594,0-44.6,20.007-44.6,44.6c0,24.593,20.006,44.6,44.6,44.6c24.592,0,44.599-20.007,44.599-44.6
	C94.599,25.407,74.592,5.4,50,5.4L50,5.4z"></path></svg>