<?xml version="1.0" encoding="utf-8"?>
<!-- Generator: Adobe Illustrator 21.0.0, SVG Export Plug-In . SVG Version: 6.00 Build 0)  -->
<svg version="1.1" id="Layer_1" xmlns="http://www.w3.org/2000/svg" xmlns:xlink="http://www.w3.org/1999/xlink" x="0px" y="0px"
	 viewBox="0 0 100 99.999" style="enable-background:new 0 0 100 99.999;" xml:space="preserve">
<polygon points="81.838,43.369 56.631,43.369 56.631,18.161 43.37,18.161 43.37,43.369 18.162,43.369 18.162,56.63 43.37,56.63 
	43.37,81.838 56.631,81.838 56.631,56.63 81.838,56.63 "/>
<path d="M50,92.499C26.565,92.499,7.5,73.434,7.5,50S26.565,7.5,50,7.5c23.435,0,42.5,19.066,42.5,42.5S73.435,92.499,50,92.499
	L50,92.499z M50,12.09c-20.905,0-37.91,17.006-37.91,37.91S29.095,87.91,50,87.91c20.903,0,37.909-17.006,37.909-37.91
	S70.903,12.09,50,12.09L50,12.09z"/>
</svg>
