<?xml version="1.0" encoding="utf-8"?>
<!-- Generator: Adobe Illustrator 16.0.4, SVG Export Plug-In . SVG Version: 6.00 Build 0)  -->
<!DOCTYPE svg PUBLIC "-//W3C//DTD SVG 1.1//EN" "http://www.w3.org/Graphics/SVG/1.1/DTD/svg11.dtd">
<svg version="1.1" id="Layer_1" xmlns="http://www.w3.org/2000/svg" xmlns:xlink="http://www.w3.org/1999/xlink" x="0px" y="0px"
	 width="515.91px" height="377.01px" viewBox="0 0 515.91 377.01" enable-background="new 0 0 515.91 377.01" xml:space="preserve">
<g>
	<path d="M274.48,182.943c-2.652-1.768-7.113-3.858-13.381-6.269v-14.225c5.272,0.451,10.415,1.705,15.43,3.761l4.533-11.283
		c-5.948-2.635-12.602-4.115-19.963-4.436v-7.185h-6.606v7.377c-6.526,0.644-11.613,2.466-15.261,5.473
		c-3.648,3.006-5.473,6.839-5.473,11.5c0,4.34,1.326,7.98,3.978,10.922c2.652,2.941,7.16,5.666,13.525,8.173l3.23,1.253v14.948
		c-3.086-0.192-6.598-0.819-10.536-1.88c-3.937-1.062-7.305-2.283-10.102-3.665v12.729c5.914,2.604,12.794,3.986,20.637,4.146v9.692
		h6.606v-9.885c6.654-0.61,11.83-2.467,15.526-5.569s5.545-7.209,5.545-12.32c0-2.828-0.619-5.303-1.856-7.425
		C279.078,186.655,277.132,184.71,274.48,182.943z M254.493,173.974c-2.186-0.964-3.768-1.904-4.75-2.82
		c-0.981-0.917-1.471-2.081-1.471-3.496c0-2.732,2.074-4.405,6.22-5.015V173.974z M261.1,202.616v-12.007
		c2.187,0.996,3.826,1.96,4.918,2.894c1.092,0.932,1.64,2.072,1.64,3.424C267.657,199.98,265.471,201.876,261.1,202.616z"/>
	<path d="M257.984,11.6L121.627,147.957l8.109,8.109l24.729-24.672v158.613h207.037V131.394l24.672,24.672l8.109-8.109L257.984,11.6
		z M257.984,246.875c-34.909,0-63.261-28.353-63.261-63.262c0-34.851,28.353-63.261,63.261-63.261
		c34.851,0,63.261,28.41,63.261,63.261C321.245,218.522,292.835,246.875,257.984,246.875z"/>
</g>
</svg>
