<?xml version="1.0" encoding="utf-8"?>
<!-- Generator: Adobe Illustrator 16.0.4, SVG Export Plug-In . SVG Version: 6.00 Build 0)  -->
<!DOCTYPE svg PUBLIC "-//W3C//DTD SVG 1.1//EN" "http://www.w3.org/Graphics/SVG/1.1/DTD/svg11.dtd">
<svg version="1.1" id="Layer_1" xmlns="http://www.w3.org/2000/svg" xmlns:xlink="http://www.w3.org/1999/xlink" x="0px" y="0px"
	 width="515.91px" height="377.01px" viewBox="0 0 515.91 377.01" enable-background="new 0 0 515.91 377.01" xml:space="preserve">
<title>tool-7</title>
<desc>Created with Sketch.</desc>
<g>
	<path d="M185.19,124.237l-1.268,9.823h16.648l-1.229-9.537c3.69-0.734,7.231-2.124,10.175-4.34
		c9.412-7.082,11.512-21.875,6.381-31.829c-1.724-3.353-4.117-5.993-7.171-7.926c-3.058-1.933-7.774-3.803-14.151-5.614
		c-6.378-1.808-10.39-3.544-12.046-5.211c-1.843-1.865-2.461-4.663-1.545-7.076c1.649-4.358,7.299-5.483,11.628-5.343
		c2.416,0.078,4.871,0.758,6.721,2.24c1.581,1.265,2.595,3.028,3.234,4.913l13.295-2.631c-1.19-5.414-3.902-10.473-8.908-13.638
		c-2.368-1.498-5.038-2.482-7.81-3.124l1.426-11.049h-16.648l1.402,10.864c-1.688,0.358-3.347,0.817-4.919,1.504
		c-15.402,6.718-16.333,28.906-3.037,38.082c4.463,3.079,9.859,4.454,15.053,5.987c4.6,1.363,10.509,2.745,12.442,7.502
		c1.477,3.636,0.042,7.78-2.691,10.519c-2.142,2.145-5.325,3.218-9.543,3.218c-7.487,0-12.541-5.372-13.632-12.174l-12.672,2.861
		c1.25,6.572,3.988,13.012,9.268,17.326C178.353,121.838,181.667,123.356,185.19,124.237 M192.475,152.128
		c-37.014,0-67.018-30.004-67.018-67.018c0-37.011,30.004-67.014,67.018-67.014c37.011,0,67.014,30.003,67.014,67.014
		C259.489,122.125,229.486,152.128,192.475,152.128 M392.343,116.299l-49.966,80.87c-1.06,1.716-2.619,2.915-4.371,3.598v76.847
		c0,1.649-1.336,2.983-2.982,2.983s-2.982-1.334-2.982-2.983v-76.635c-0.499-0.161-0.991-0.352-1.465-0.603l-40.293-21.347v98.584
		c0,1.649-1.333,2.983-2.982,2.983c-1.646,0-2.983-1.334-2.983-2.983v-97.907L241.06,226.54v51.073c0,1.649-1.333,2.983-2.983,2.983
		c-1.647,0-2.983-1.334-2.983-2.983v-47.362c-1.819,0.311-3.734,0.069-5.471-0.793l-41.769-20.693v68.849
		c0,1.649-1.336,2.983-2.983,2.983s-2.983-1.334-2.983-2.983v-69.466l-44.97,37.571c-1.673,1.401-3.711,2.082-5.733,2.082
		c-2.56,0-5.101-1.092-6.873-3.21c-3.168-3.794-2.661-9.438,1.131-12.605l51.207-42.781c2.721-2.278,6.53-2.729,9.71-1.154
		l45.205,22.397l46.658-50.524c2.757-2.989,7.175-3.735,10.766-1.837l42.562,22.549l45.563-73.741
		c2.601-4.206,8.12-5.507,12.317-2.912C393.638,106.58,394.938,112.096,392.343,116.299"/>
</g>
</svg>
