<?xml version="1.0" encoding="utf-8"?>
<!-- Generator: Adobe Illustrator 16.0.4, SVG Export Plug-In . SVG Version: 6.00 Build 0)  -->
<!DOCTYPE svg PUBLIC "-//W3C//DTD SVG 1.1//EN" "http://www.w3.org/Graphics/SVG/1.1/DTD/svg11.dtd">
<svg version="1.1"
	 id="Layer_1" xmlns:inkscape="http://www.inkscape.org/namespaces/inkscape" xmlns:sodipodi="http://sodipodi.sourceforge.net/DTD/sodipodi-0.dtd" xmlns:svg="http://www.w3.org/2000/svg" xmlns:rdf="http://www.w3.org/1999/02/22-rdf-syntax-ns#" xmlns:cc="http://creativecommons.org/ns#" xmlns:dc="http://purl.org/dc/elements/1.1/"
	 xmlns="http://www.w3.org/2000/svg" xmlns:xlink="http://www.w3.org/1999/xlink" x="0px" y="0px" width="515.91px"
	 height="377.01px" viewBox="0 0 515.91 377.01" enable-background="new 0 0 515.91 377.01" xml:space="preserve">
<g transform="translate(0,-952.36218)">
	<path d="M134.296,994.587c-4.96,0-9.048,4.087-9.048,9.048v199.062c0,4.96,4.088,9.048,9.048,9.048h247.318
		c4.96,0,9.048-4.088,9.048-9.048v-199.062c0-4.961-4.088-9.048-9.048-9.048H134.296z M134.296,1000.619h247.318
		c1.724,0,3.017,1.293,3.017,3.017v51.273H131.28v-51.273C131.28,1001.912,132.573,1000.619,134.296,1000.619z M188.585,1012.683
		c-8.293,0-15.081,6.788-15.081,15.081s6.788,15.081,15.081,15.081s15.08-6.788,15.08-15.081S196.878,1012.683,188.585,1012.683z
		 M327.324,1012.683c-8.293,0-15.08,6.788-15.08,15.081s6.787,15.081,15.08,15.081s15.081-6.788,15.081-15.081
		S335.617,1012.683,327.324,1012.683z M188.585,1018.716c5.033,0,9.048,4.016,9.048,9.048s-4.015,9.048-9.048,9.048
		c-5.033,0-9.048-4.016-9.048-9.048S183.552,1018.716,188.585,1018.716z M327.324,1018.716c5.033,0,9.049,4.016,9.049,9.048
		s-4.016,9.048-9.049,9.048c-5.032,0-9.047-4.016-9.047-9.048S322.292,1018.716,327.324,1018.716z M131.28,1060.941h253.351v141.756
		c0,1.723-1.293,3.016-3.017,3.016H134.296c-1.723,0-3.016-1.293-3.016-3.016V1060.941z M161.44,1085.069v42.226h39.209v-42.226
		H161.44z M212.714,1085.069v42.226h39.209v-42.226H212.714z M263.987,1085.069v42.226h39.209v-42.226H263.987z M315.261,1085.069
		v42.226h39.209v-42.226H315.261L315.261,1085.069z M161.44,1139.359v42.225h39.209v-42.225H161.44z M212.714,1139.359v42.225
		h39.209v-42.225H212.714z M263.987,1139.359v42.225h39.209v-42.225H263.987z"/>
</g>
</svg>
