<?xml version="1.0" encoding="utf-8"?>
<!-- Generator: Adobe Illustrator 16.0.4, SVG Export Plug-In . SVG Version: 6.00 Build 0)  -->
<!DOCTYPE svg PUBLIC "-//W3C//DTD SVG 1.1//EN" "http://www.w3.org/Graphics/SVG/1.1/DTD/svg11.dtd">
<svg version="1.1" id="Layer_1" xmlns="http://www.w3.org/2000/svg" xmlns:xlink="http://www.w3.org/1999/xlink" x="0px" y="0px"
	 width="515.91px" height="377.01px" viewBox="0 0 515.91 377.01" enable-background="new 0 0 515.91 377.01" xml:space="preserve">
<g>
	<rect x="137.327" y="196.147" width="183.229" height="102.206"/>
	<rect x="126.27" y="168.439" width="205.844" height="18.664"/>
	<path d="M276.082,136.291L276.082,136.291l16.41-25.552l-7.398-4.385l-20.445,8.285c-2.947,1.194-5.602,1.773-8.12,1.773l0,0
		c-6.605,0-11.805-3.891-15.895-11.893c-1.927-3.77-2.135-8.131-0.591-12.278c1.194-3.2,3.363-6.132,6.075-8.349l-10.596-6.463
		c-0.549-0.335-0.999-0.772-1.345-1.267l-1.571-0.935l-44.047,65.838l84.743-0.443L276.082,136.291z"/>
	<polygon points="296.775,136.291 286.831,136.291 283.752,141.086 290.297,141.086 290.297,150.134 184.547,150.134 
		171.56,150.204 171.608,150.134 168.094,150.134 168.094,141.086 177.658,141.086 180.867,136.291 161.474,136.291 
		131.934,159.391 326.496,159.391 	"/>
	<path d="M320.098,29.458c-11.562,0-20.982-1.713-35.369-5.088c-0.914-0.211-1.843-0.32-2.763-0.32
		c-6.415,0-13.448,5.507-18.813,14.736c-6.44,11.069-8.551,14.779-10.666,18.495c-1.855,3.261-3.713,6.524-8.478,14.733
		l11.473,6.998l6.566-2.527c1.237-1.062,3.604-4.123,5.532-6.611c1.933-2.506,3.936-5.094,5.814-7.121
		c1.538-1.662,3.293-3.348,5.643-4.4c1.551-0.697,3.348-1.046,5.352-1.046c4.918,0,11.65,2.328,14.449,6.647
		c0.712,1.101,0.914,2.461,0.543,3.722c-0.365,1.261-1.267,2.301-2.461,2.847l-31.002,14.157c-0.453,0.202-0.947,0.398-1.502,0.609
		l-8.813,3.574l0,0l-1.197,0.485c-2.558,1.041-4.919,3.469-5.881,6.047c-0.67,1.794-0.612,3.478,0.169,5.004
		c3.559,6.964,6.557,6.964,7.838,6.964c1.315,0,2.904-0.371,4.721-1.11l31.476-12.755c6.94-2.814,13.388-3.767,20.812-3.088
		c0.841,0.075,1.697,0.117,2.568,0.117c6.133,0,11.905-1.969,15.829-5.408c1.866-1.631,3.56-2.904,5.644-4.247l21.525-13.844
		l-22.178-38.407C330.612,29.138,325.117,29.458,320.098,29.458z"/>
	
		<rect x="353.645" y="4.225" transform="matrix(-0.8661 0.4999 -0.4999 -0.8661 698.0471 -113.7218)" width="21.222" height="64.819"/>
</g>
</svg>
