<?xml version="1.0" encoding="utf-8"?>
<!-- Generator: Adobe Illustrator 16.0.4, SVG Export Plug-In . SVG Version: 6.00 Build 0)  -->
<!DOCTYPE svg PUBLIC "-//W3C//DTD SVG 1.1//EN" "http://www.w3.org/Graphics/SVG/1.1/DTD/svg11.dtd">
<svg version="1.1" id="Layer_1" xmlns="http://www.w3.org/2000/svg" xmlns:xlink="http://www.w3.org/1999/xlink" x="0px" y="0px"
	 width="515.91px" height="377.01px" viewBox="0 0 515.91 377.01" enable-background="new 0 0 515.91 377.01" xml:space="preserve">
<path d="M234.128,278.987v-18.699c-14.175-3.017-28.049-8.445-40.717-16.891l-13.271,12.969c-4.826,4.826-12.366,4.524-16.89,0
	l-14.175-14.477c-4.826-4.826-4.524-12.366,0-16.891l13.271-12.969c-8.445-12.668-13.874-26.542-16.588-40.717h-18.7
	c-6.635,0-12.064-5.429-12.064-12.064v-20.208c0-6.635,5.429-12.064,12.064-12.064h18.7c3.016-14.176,8.445-28.05,16.89-40.717
	l-12.969-13.271c-4.826-4.826-4.524-12.366,0-16.89l14.478-14.176c4.826-4.826,12.366-4.524,16.89,0l12.969,13.271
	c12.667-8.445,26.542-13.874,40.717-16.588v-18.7c0-6.636,5.429-12.064,12.064-12.064h20.208c6.635,0,12.063,5.429,12.063,12.064
	v18.7c14.176,3.016,28.05,8.445,40.718,16.89l13.271-12.969c4.825-4.826,12.366-4.524,16.89,0l14.176,14.477
	c4.826,4.826,4.523,12.366,0,16.89L350.85,86.863c8.445,12.667,13.875,26.541,16.589,40.717h18.7
	c6.635,0,12.064,5.429,12.064,12.064v20.208c0,6.635-5.43,12.064-12.064,12.064h-18.7c-2.413,12.366-6.937,24.43-13.572,35.59
	l-18.397-18.398c6.937-13.874,10.254-29.859,9.048-45.543c-1.509-21.113-10.556-41.32-25.637-56.401
	c-16.589-16.588-38.907-25.938-62.433-25.938c-23.526,0-45.543,9.048-62.433,25.938c-16.588,16.588-25.938,38.908-25.938,62.433
	s9.048,45.542,25.938,62.433c16.588,16.588,38.907,25.938,62.433,25.938c13.873,0,27.446-3.317,39.51-9.351l18.398,18.398
	c-11.461,6.636-23.525,11.461-36.193,13.874v18.7c0,6.635-5.428,12.064-12.063,12.064h-20.208
	C239.557,291.052,234.128,285.622,234.128,278.987z M375.281,289.241l-72.387-72.385l2.715-2.715l-4.223-4.223
	c-29.558,22.018-71.481,19.604-98.324-7.238c-29.558-29.558-29.558-77.212,0-106.468c29.558-29.558,77.211-29.558,106.468,0
	c26.843,26.843,29.256,68.767,7.238,98.324l4.223,4.223l2.714-2.715l72.387,72.386c5.73,5.73,5.73,15.08,0,21.113
	C390.662,294.973,381.312,294.973,375.281,289.241z M293.545,112.5c-20.51-20.509-53.385-20.509-73.894,0s-20.509,53.385,0,73.894
	c20.509,20.51,53.384,20.51,73.894,0C313.752,165.884,313.752,133.009,293.545,112.5z M257.653,126.977
	c2.111,0,3.921,0.905,5.128,2.413c0.904,1.207,1.508,3.318,1.809,5.429c0,1.207,1.207,1.81,2.111,1.81l11.16-0.302
	c1.207,0,2.111-0.905,2.111-2.111c-0.302-4.826-1.811-8.747-4.524-12.064c-3.017-3.318-6.937-5.429-11.461-6.636v-8.445
	c0-0.905-0.905-1.81-1.81-1.81h-6.636c-0.905,0-1.81,0.905-1.81,1.81v8.144c-5.127,0.603-9.35,2.714-12.366,5.73
	c-3.619,3.317-5.127,7.54-5.127,12.969c0,5.73,1.508,9.953,4.826,12.969c3.318,3.016,8.445,6.032,15.684,8.747
	c3.016,1.206,5.127,2.714,6.333,3.921c1.207,1.206,1.811,3.317,1.811,5.73c0,2.111-0.604,3.921-1.811,5.127
	c-1.206,1.207-2.714,1.81-5.127,1.81c-2.714,0-4.826-0.905-6.334-2.413c-1.508-1.508-2.111-3.619-2.413-6.333
	c0-1.207-1.207-1.81-2.111-1.81l-11.16,0.302c-1.206,0-2.111,0.905-2.111,2.111c0.301,5.73,2.111,10.254,5.73,13.572
	c3.921,3.318,8.445,5.429,14.175,6.032v7.541c0,0.904,0.905,1.809,1.81,1.809h6.636c0.904,0,1.81-0.904,1.81-1.809v-7.842
	c4.524-0.905,8.144-2.714,11.159-5.429c3.318-3.318,5.127-7.541,5.127-12.969c0-5.73-1.809-9.953-5.127-12.969
	c-3.317-3.016-8.445-6.032-15.684-9.048c-3.016-1.206-5.127-2.714-6.333-3.921c-1.207-1.206-1.81-3.016-1.81-5.127
	s0.603-3.921,1.508-5.127C253.732,127.882,255.241,126.977,257.653,126.977z"/>
</svg>
