<?xml version="1.0" encoding="utf-8"?>
<!-- Generator: Adobe Illustrator 16.0.4, SVG Export Plug-In . SVG Version: 6.00 Build 0)  -->
<!DOCTYPE svg PUBLIC "-//W3C//DTD SVG 1.1//EN" "http://www.w3.org/Graphics/SVG/1.1/DTD/svg11.dtd">
<svg version="1.1" id="Layer_1" xmlns="http://www.w3.org/2000/svg" xmlns:xlink="http://www.w3.org/1999/xlink" x="0px" y="0px"
	 width="515.91px" height="377.01px" viewBox="0 0 515.91 377.01" enable-background="new 0 0 515.91 377.01" xml:space="preserve">
<path d="M141.93,31.669v159.852v24.129c0,16.589,13.572,30.161,30.161,30.161h55.321l7.061-39.728l0.534-2.998l1.653-2.559
	l37.42-57.851l-20.316-12.638l34.407-55.33c2.679-4.34,6.461-7.809,10.678-10.085c4.222-2.286,8.888-3.457,13.653-3.459
	c4.524-0.015,9.184,1.182,13.406,3.438V31.669H141.93z M192.039,169.16l-24.472-18.356l9.048-12.064l11.718,8.789l17.861-26.786
	l12.547,8.364L192.039,169.16z M192.039,114.87l-24.472-18.355l9.048-12.064l11.718,8.789l17.861-26.786l12.547,8.364
	L192.039,114.87z"/>
<g>
	<path d="M362.957,77.483c-4.048-2.621-8.593-3.873-13.084-3.873c-7.893,0-15.629,3.876-20.247,10.984l-9.901-6.261
		c-2.244-1.42-4.796-2.105-7.27-2.099c-2.231,0-4.424,0.54-6.406,1.583c-1.98,1.043-3.767,2.621-5.069,4.636l-27.953,43.214
		l12.665,8.188l27.174-42.014l8.563,5.408l-72.112,111.468l-10.873,61.22l51.596-35.33l80.034-123.713l0.037-0.051
		C377.347,99.66,374.144,84.722,362.957,77.483z M357.598,102.423l-11.618,17.961l-15.195-9.833l11.474-17.726
		c1.674-2.587,4.523-4.135,7.615-4.135c1.731,0,3.424,0.5,4.893,1.454C358.876,92.808,360.113,98.261,357.598,102.423z"/>
	<polygon points="300.979,82.457 300.979,82.454 300.985,82.447 	"/>
</g>
</svg>
