<?xml version="1.0" encoding="utf-8"?>
<!-- Generator: Adobe Illustrator 16.0.4, SVG Export Plug-In . SVG Version: 6.00 Build 0)  -->
<!DOCTYPE svg PUBLIC "-//W3C//DTD SVG 1.1//EN" "http://www.w3.org/Graphics/SVG/1.1/DTD/svg11.dtd">
<svg version="1.1"
	 id="Layer_1" xmlns:inkscape="http://www.inkscape.org/namespaces/inkscape" xmlns:sodipodi="http://sodipodi.sourceforge.net/DTD/sodipodi-0.dtd" xmlns:svg="http://www.w3.org/2000/svg" xmlns:rdf="http://www.w3.org/1999/02/22-rdf-syntax-ns#" xmlns:cc="http://creativecommons.org/ns#" xmlns:dc="http://purl.org/dc/elements/1.1/"
	 xmlns="http://www.w3.org/2000/svg" xmlns:xlink="http://www.w3.org/1999/xlink" x="0px" y="0px" width="515.91px"
	 height="377.01px" viewBox="0 0 515.91 377.01" enable-background="new 0 0 515.91 377.01" xml:space="preserve">
<g transform="translate(0,-952.36218)">
	<path d="M257.578,988.461c-1.554,0.195-2.7,1.546-2.639,3.11v57.306H143.344c-8.303,0-15.081,6.778-15.081,15.08v138.74
		c0,8.302,6.778,15.08,15.081,15.08h229.222c8.303,0,15.08-6.778,15.08-15.08v-138.74c0-8.302-6.777-15.08-15.08-15.08h-96.515
		c-1.666-0.024-3.035,1.308-3.06,2.973c-0.023,1.666,1.309,3.035,2.975,3.059c0.027,0,0.057,0,0.085,0h96.515
		c5.064,0,9.048,3.983,9.048,9.048v138.74c0,5.064-3.983,9.048-9.048,9.048H143.344c-5.065,0-9.048-3.983-9.048-9.048v-138.74
		c0-5.065,3.983-9.048,9.048-9.048h114.611c1.666,0,3.016-1.351,3.016-3.016v-60.322c0.065-1.665-1.23-3.067-2.896-3.132
		C257.909,988.433,257.743,988.44,257.578,988.461z M154.843,1073.005c-1.442,0.275-2.476,1.548-2.45,3.016v114.611
		c0,1.666,1.35,3.016,3.016,3.016h205.094c1.666,0,3.016-1.35,3.016-3.016v-114.611c0-1.666-1.35-3.016-3.016-3.016H155.408
		C155.22,1072.988,155.031,1072.988,154.843,1073.005z M158.424,1079.037h30.161v30.161h-30.161V1079.037z M194.618,1079.037h27.145
		v30.161h-27.145V1079.037z M227.794,1079.037h27.145v30.161h-27.145V1079.037z M260.971,1079.037h27.145v30.161h-27.145V1079.037z
		 M294.148,1079.037h27.145v30.161h-27.145V1079.037z M327.324,1079.037h30.162v72.386h-63.338v-36.193h30.16
		c1.666,0,3.016-1.351,3.016-3.016V1079.037z M158.424,1115.23h30.161v36.193h-30.161V1115.23z M194.618,1115.23h27.145v36.193
		h-27.145V1115.23z M227.794,1115.23h27.145v36.193h-27.145V1115.23z M260.971,1115.23h27.145v36.193h-27.145V1115.23z
		 M158.424,1157.455h30.161v30.161h-30.161V1157.455z M194.618,1157.455h126.675v30.161H194.618V1157.455z M327.324,1157.455h30.162
		v30.161h-30.162V1157.455z"/>
</g>
</svg>
