<?xml version="1.0" encoding="utf-8"?>
<!-- Generator: Adobe Illustrator 16.0.4, SVG Export Plug-In . SVG Version: 6.00 Build 0)  -->
<!DOCTYPE svg PUBLIC "-//W3C//DTD SVG 1.1//EN" "http://www.w3.org/Graphics/SVG/1.1/DTD/svg11.dtd">
<svg version="1.1"
	 id="Layer_1" xmlns:dc="http://purl.org/dc/elements/1.1/" xmlns:cc="http://creativecommons.org/ns#" xmlns:sodipodi="http://sodipodi.sourceforge.net/DTD/sodipodi-0.dtd" xmlns:svg="http://www.w3.org/2000/svg" xmlns:rdf="http://www.w3.org/1999/02/22-rdf-syntax-ns#" xmlns:inkscape="http://www.inkscape.org/namespaces/inkscape"
	 xmlns="http://www.w3.org/2000/svg" xmlns:xlink="http://www.w3.org/1999/xlink" x="0px" y="0px" width="515.91px"
	 height="377.01px" viewBox="0 0 515.91 377.01" enable-background="new 0 0 515.91 377.01" xml:space="preserve">
<g transform="translate(0,-1020.3622)">
	<g transform="translate(-8.0009203,-4.1324463)">
		<path d="M237.68,1024.495v18.832v37.719h-9.425v-34.737c-6.38,2.299-12.531,5.189-18.372,8.633
			c-29.59,17.698-49.022,48.367-52.373,82.655h216.137c-3.415-35.105-23.677-66.37-54.344-83.852
			c-5.018-2.79-10.25-5.178-15.646-7.143v34.442h-9.426v-37.609v-18.942h-23.895v28.276h-9.425v-28.276H237.68z M373.647,1137.598
			c0.291,2.612,0.487,5.234,0.588,7.86c-0.076-2.625-0.248-5.248-0.515-7.86H373.647z M157.4,1139.052
			c-0.232,2.651-0.368,5.31-0.405,7.971h-13.567c-5.222,0-9.425,4.204-9.425,9.425v9.425c0,5.221,4.204,9.425,9.425,9.425h245.057
			c5.222,0,9.425-4.204,9.425-9.425v-9.425c0-5.222-4.203-9.425-9.425-9.425h-14.156H157.032
			C157.057,1144.362,157.18,1141.704,157.4,1139.052z M134.002,1194.149v4.878V1213v5.137h26.858
			c2.663,11.845,7.308,23.166,13.733,33.467l-18.906,18.868l33.946,33.946l18.924-18.943c10.281,6.455,21.577,11.108,33.412,13.807
			v26.822h47.973v-26.859c11.846-2.662,23.166-7.289,33.467-13.714l18.869,18.888l33.945-33.946l-18.941-18.924
			c6.453-10.28,11.127-21.577,13.824-33.411h26.803V1213v-13.972v-4.878h-65.977c0,36.438-29.539,65.977-65.977,65.977
			c-36.438,0-65.977-29.538-65.977-65.977H134.002z"/>
	</g>
</g>
</svg>
