<?xml version="1.0" encoding="utf-8"?>
<!-- Generator: Adobe Illustrator 16.0.4, SVG Export Plug-In . SVG Version: 6.00 Build 0)  -->
<!DOCTYPE svg PUBLIC "-//W3C//DTD SVG 1.1//EN" "http://www.w3.org/Graphics/SVG/1.1/DTD/svg11.dtd">
<svg version="1.1" id="Layer_1" xmlns="http://www.w3.org/2000/svg" xmlns:xlink="http://www.w3.org/1999/xlink" x="0px" y="0px"
	 width="515.91px" height="377.01px" viewBox="0 0 515.91 377.01" enable-background="new 0 0 515.91 377.01" xml:space="preserve">
<title>21 -Handcuffs- (security, protection, secure)</title>
<desc>Created with Sketch.</desc>
<g>
	<g transform="translate(-146.000000, -666.000000)">
		<g transform="translate(146.000000, 666.000000)">
			<path d="M389.738,84.134l-0.639,0.251c-1.176,0.462-2.353,0.719-3.519,0.875c-0.417,0.056-0.835,0.106-1.262,0.126
				c-0.487,0.02-0.97,0.02-1.448-0.005c-0.291-0.015-0.572-0.056-0.854-0.085c-3.303-0.397-6.34-1.89-8.691-4.132
				c-0.453-0.427-0.9-0.859-1.293-1.332c-0.366-0.442-0.673-0.93-0.99-1.413c-0.301-0.458-0.617-0.91-0.864-1.397
				c-0.307-0.608-0.528-1.262-0.749-1.91c-0.15-0.427-0.336-0.839-0.447-1.277c-0.271-1.111-0.438-2.267-0.438-3.458
				s0.166-2.347,0.438-3.463l0,0c0.105-0.427,0.297-0.829,0.438-1.251c0.227-0.659,0.447-1.317,0.759-1.936
				c0.247-0.478,0.558-0.925,0.854-1.377c0.316-0.487,0.634-0.98,1.006-1.427c0.387-0.473,0.829-0.9,1.281-1.322
				c2.373-2.262,5.439-3.77,8.777-4.147c0.241-0.025,0.477-0.061,0.724-0.076c0.508-0.03,1.021-0.03,1.533-0.005
				c0.392,0.02,0.774,0.065,1.156,0.116c1.187,0.151,2.388,0.412,3.589,0.88l0.639,0.251c5.273,2.353,8.968,7.621,8.968,13.758
				S395.012,81.781,389.738,84.134L389.738,84.134z M328.33,110.59c-22.172,0-40.214-18.041-40.214-40.214
				c0-22.173,18.042-40.214,40.214-40.214c15.775,0,30.086,9.355,36.565,23.581c-0.085,0.09-0.141,0.201-0.222,0.296
				c-0.035,0.04-0.06,0.09-0.095,0.131c-0.819,0.955-1.589,1.945-2.252,3.021c-0.015,0.02-0.035,0.04-0.05,0.06
				c-0.191,0.307-0.332,0.639-0.508,0.95c-0.021,0.041-0.035,0.081-0.056,0.116c-0.522,0.94-1.036,1.88-1.433,2.891
				c-0.006,0.02-0.021,0.035-0.025,0.05c-0.246,0.624-0.393,1.272-0.588,1.91c-0.01,0.03-0.016,0.061-0.025,0.086
				c-0.23,0.789-0.513,1.548-0.668,2.362c-0.006,0.01-0.011,0.02-0.011,0.03c-0.302,1.548-0.472,3.126-0.472,4.73
				s0.17,3.182,0.472,4.73c0,0.01,0.005,0.015,0.011,0.025c0.155,0.819,0.438,1.589,0.673,2.378c0.011,0.03,0.015,0.055,0.025,0.085
				c0.19,0.633,0.337,1.282,0.583,1.895c0.005,0.02,0.016,0.035,0.025,0.055c0.396,1.01,0.91,1.951,1.428,2.891
				c0.025,0.035,0.035,0.075,0.055,0.11c0.182,0.317,0.322,0.648,0.518,0.96c0.011,0.02,0.031,0.035,0.046,0.06
				c0.663,1.066,1.423,2.046,2.231,3.001c0.035,0.035,0.061,0.081,0.096,0.121c0.09,0.105,0.15,0.221,0.241,0.327
				C358.416,101.235,344.105,110.59,328.33,110.59L328.33,110.59z M268.01,65.349c0,2.775-2.252,5.027-5.027,5.027
				s-5.027-2.252-5.027-5.027V45.242c0-2.775,2.251-5.027,5.027-5.027s5.027,2.252,5.027,5.027V65.349z M408.76,70.375
				c0-9.742-5.63-18.111-13.754-22.279C385.5,19.681,358.441,0,328.33,0c-17.457,0-42.979,13.206-47.11,15.402l-31.694,8.555
				c-6.766,1.126-11.677,6.922-11.677,13.784v13.13c-12.21,1.433-23.611,5.434-33.665,11.446l15.774,25.808
				c5.439-3.222,11.471-5.525,17.891-6.731v21.615c0,6.861,4.911,12.657,11.194,13.683l32.177,8.656
				c4.142,2.202,29.653,15.402,47.11,15.402c30.111,0,57.17-19.68,66.676-48.097C403.13,88.487,408.76,80.118,408.76,70.375
				L408.76,70.375z"/>
			<path d="M194.161,257.747c-0.081-0.07-0.176-0.121-0.262-0.191c-0.04-0.041-0.09-0.065-0.13-0.101
				c-0.975-0.835-1.976-1.614-3.066-2.287c-0.025-0.015-0.04-0.035-0.061-0.046c-0.286-0.181-0.593-0.307-0.885-0.473
				c-0.04-0.024-0.085-0.039-0.125-0.064c-0.955-0.533-1.915-1.051-2.946-1.458c-0.015-0.005-0.035-0.021-0.05-0.025
				c-0.603-0.236-1.231-0.377-1.85-0.567c-0.03-0.011-0.061-0.016-0.091-0.025c-0.804-0.242-1.578-0.527-2.413-0.689
				c-0.01,0-0.02-0.004-0.03-0.004c-1.548-0.307-3.126-0.473-4.725-0.473c-1.604,0-3.182,0.166-4.725,0.473
				c-0.01,0-0.02,0.004-0.03,0.004c-0.834,0.162-1.614,0.447-2.413,0.689c-0.03,0.01-0.06,0.015-0.09,0.025
				c-0.618,0.19-1.247,0.331-1.85,0.567c-0.021,0.005-0.035,0.021-0.05,0.025c-1.031,0.407-1.991,0.925-2.946,1.458
				c-0.04,0.025-0.085,0.04-0.125,0.064c-0.292,0.166-0.599,0.292-0.885,0.473c-0.021,0.011-0.035,0.031-0.061,0.046
				c-1.091,0.673-2.096,1.452-3.066,2.287c-0.04,0.035-0.09,0.06-0.136,0.101c-0.08,0.07-0.176,0.121-0.256,0.191
				c-14.226-6.48-23.581-20.797-23.581-36.565c0-22.179,18.041-40.214,40.214-40.214s40.214,18.036,40.214,40.214
				C217.741,236.95,208.386,251.267,194.161,257.747L194.161,257.747z M163.769,282.589l-0.251-0.639
				c-0.352-0.899-0.613-1.799-0.789-2.704c-0.171-0.899-0.282-1.825-0.282-2.77c0-0.935,0.111-1.84,0.277-2.725
				c0.05-0.276,0.121-0.543,0.186-0.81c0.151-0.623,0.342-1.231,0.568-1.824c0.101-0.262,0.191-0.528,0.307-0.785
				c0.347-0.773,0.739-1.527,1.211-2.231l0,0l1.005-1.206c2.136-2.568,4.977-4.313,8.083-5.067c0.015-0.005,0.035-0.015,0.055-0.015
				c0.055-0.021,0.111-0.041,0.171-0.056c1.046-0.236,2.126-0.362,3.217-0.362s2.167,0.126,3.217,0.362
				c0.03,0.005,0.055,0.015,0.085,0.025c0.05,0.01,0.101,0.035,0.151,0.045c3.102,0.759,5.937,2.503,8.073,5.067l1.005,1.206l0,0
				c0.468,0.704,0.865,1.453,1.211,2.231c0.116,0.257,0.206,0.523,0.307,0.785c0.226,0.593,0.417,1.201,0.568,1.824
				c0.065,0.267,0.136,0.533,0.186,0.81c0.166,0.885,0.277,1.79,0.277,2.725c0,0.944-0.111,1.87-0.282,2.77
				c-0.176,0.905-0.442,1.805-0.789,2.704l-0.251,0.639c-2.353,5.268-7.625,8.968-13.758,8.968
				C171.389,291.557,166.121,287.856,163.769,282.589L163.769,282.589z M207.688,155.833c0,2.775-2.252,5.027-5.027,5.027h-20.107
				c-2.775,0-5.027-2.252-5.027-5.027c0-2.78,2.252-5.026,5.027-5.026h20.107C205.436,150.807,207.688,153.053,207.688,155.833
				L207.688,155.833z M223.944,142.372c-1.126-6.761-6.922-11.672-13.784-11.672h-17.292c0.382-3.991,1.187-7.877,2.377-11.602
				l-25.154-18.448c-4.203,9.28-6.726,19.418-7.369,30.05h-17.83c-6.862,0-12.658,4.911-13.683,11.195l-8.656,32.176
				c-2.202,4.142-15.402,29.653-15.402,47.111c0,30.11,19.68,57.17,48.096,66.675c4.167,8.124,12.537,13.754,22.279,13.754
				s18.111-5.63,22.279-13.754c28.417-9.505,48.096-36.564,48.096-66.675c0-17.458-13.205-42.979-15.407-47.111L223.944,142.372z"/>
			<path d="M211.785,94.035l-15.89-25.999c-8.415,6.49-15.568,14.492-21.082,23.606l24.49,17.961
				C202.505,103.702,206.743,98.429,211.785,94.035"/>
		</g>
	</g>
</g>
</svg>
