<?xml version="1.0" encoding="utf-8"?>
<!-- Generator: Adobe Illustrator 21.0.0, SVG Export Plug-In . SVG Version: 6.00 Build 0)  -->
<svg version="1.1" id="Layer_1" xmlns="http://www.w3.org/2000/svg" xmlns:xlink="http://www.w3.org/1999/xlink" x="0px" y="0px"
	 viewBox="0 0 515.91 377.01" style="enable-background:new 0 0 515.91 377.01;" xml:space="preserve">
<g>
	<polygon points="140.14,377.01 246.174,377.01 246.174,164.942 173.282,164.942 	"/>
	<polygon points="246.174,0 199.048,0 184.32,94.253 246.174,94.253 	"/>
	<polygon points="269.738,164.942 269.738,377.01 375.77,377.01 342.64,164.942 	"/>
	<polygon points="316.863,0 269.738,0 269.738,94.253 331.59,94.253 	"/>
	<path d="M399.335,106.034H116.577c-13.006,0-23.564,10.556-23.564,23.564v11.781c0,6.515,5.266,11.781,11.781,11.781h11.781v23.564
		c0,6.515,5.266,11.781,11.781,11.781c6.515,0,11.781-5.266,11.781-11.781V153.16h235.63v23.564c0,6.515,5.266,11.781,11.783,11.781
		c6.515,0,11.783-5.266,11.783-11.781V153.16h11.781c6.515,0,11.781-5.266,11.781-11.781v-11.781
		C422.896,116.59,412.34,106.034,399.335,106.034z"/>
</g>
</svg>
