<?xml version="1.0" encoding="utf-8"?>
<!-- Generator: Adobe Illustrator 16.0.4, SVG Export Plug-In . SVG Version: 6.00 Build 0)  -->
<!DOCTYPE svg PUBLIC "-//W3C//DTD SVG 1.1//EN" "http://www.w3.org/Graphics/SVG/1.1/DTD/svg11.dtd">
<svg version="1.1"
	 id="Layer_1" xmlns:dc="http://purl.org/dc/elements/1.1/" xmlns:cc="http://creativecommons.org/ns#" xmlns:sodipodi="http://sodipodi.sourceforge.net/DTD/sodipodi-0.dtd" xmlns:svg="http://www.w3.org/2000/svg" xmlns:rdf="http://www.w3.org/1999/02/22-rdf-syntax-ns#" xmlns:inkscape="http://www.inkscape.org/namespaces/inkscape"
	 xmlns="http://www.w3.org/2000/svg" xmlns:xlink="http://www.w3.org/1999/xlink" x="0px" y="0px" width="515.91px"
	 height="377.01px" viewBox="0 0 515.91 377.01" enable-background="new 0 0 515.91 377.01" xml:space="preserve">
<g transform="translate(0,-952.36218)">
	<path d="M257.955,1027.764l-135.724,51.273l135.724,51.273l135.724-51.273L257.955,1027.764z M137.312,1091.101v25.448
		c1.856-0.817,3.874-1.319,6.032-1.319s4.175,0.502,6.032,1.319v-20.924L137.312,1091.101z M173.505,1104.768v43.639
		c0,12.626,37.665,30.161,84.45,30.161c46.785,0,84.45-17.535,84.45-30.16v-43.64l-82.282,31.104c-1.396,0.538-2.94,0.538-4.336,0
		L173.505,1104.768z M143.344,1121.263c-4.997,0-9.048,4.051-9.048,9.048s4.051,9.048,9.048,9.048s9.048-4.051,9.048-9.048
		S148.341,1121.263,143.344,1121.263z"/>
</g>
</svg>
