<?xml version="1.0" encoding="utf-8"?>
<!-- Generator: Adobe Illustrator 16.0.4, SVG Export Plug-In . SVG Version: 6.00 Build 0)  -->
<!DOCTYPE svg PUBLIC "-//W3C//DTD SVG 1.1//EN" "http://www.w3.org/Graphics/SVG/1.1/DTD/svg11.dtd">
<svg version="1.1" id="Layer_1" xmlns="http://www.w3.org/2000/svg" xmlns:xlink="http://www.w3.org/1999/xlink" x="0px" y="0px"
	 width="515.91px" height="377.01px" viewBox="0 0 515.91 377.01" enable-background="new 0 0 515.91 377.01" xml:space="preserve">
<g>
	<path d="M408.759,135.724c0-42.225-33.177-75.402-75.401-75.402V0H107.151v271.447h180.964v30.161l45.242-34.686l45.24,34.686
		V196.045C396.694,182.473,408.759,159.852,408.759,135.724z M137.312,241.286V30.161h165.884v36.193
		c-22.62,9.048-39.209,30.161-43.733,54.29h-91.99v30.161h91.99c3.016,18.097,13.572,34.685,28.652,45.241v45.241H137.312z
		 M348.438,241.286l-15.08-12.064l-15.08,12.064v-31.669c4.523,1.509,10.556,1.509,15.08,1.509c4.523,0,10.556,0,15.08-1.509
		V241.286z M333.357,180.965c-25.637,0-45.242-19.604-45.242-45.241s19.605-45.241,45.242-45.241s45.24,19.604,45.24,45.241
		S358.994,180.965,333.357,180.965z"/>
	<rect x="167.473" y="60.322" width="105.562" height="30.161"/>
	<rect x="167.473" y="180.965" width="105.562" height="30.161"/>
</g>
</svg>
