<?xml version="1.0" encoding="utf-8"?>
<!-- Generator: Adobe Illustrator 16.0.4, SVG Export Plug-In . SVG Version: 6.00 Build 0)  -->
<!DOCTYPE svg PUBLIC "-//W3C//DTD SVG 1.1//EN" "http://www.w3.org/Graphics/SVG/1.1/DTD/svg11.dtd">
<svg version="1.1" id="Layer_1" xmlns="http://www.w3.org/2000/svg" xmlns:xlink="http://www.w3.org/1999/xlink" x="0px" y="0px"
	 width="515.91px" height="377.01px" viewBox="0 0 515.91 377.01" enable-background="new 0 0 515.91 377.01" xml:space="preserve">
<g>
	<path d="M308.744,87.267c5.516,7.326,9.678,16.669,12.557,28.121V104.43v-6.051V76.067h-2c-1.01,0-1.982,0.166-2.895,0.462
		c-1.76,0.299-3.923,0.86-6.349,1.924c-1.916,0.822-3.946,1.974-6.003,3.481C305.621,83.462,307.199,85.222,308.744,87.267z"/>
	<rect x="328.966" y="76.067" width="27.433" height="22.312"/>
	<path d="M375.305,78.454c-2.421-1.062-4.58-1.623-6.338-1.923c-0.914-0.297-1.889-0.465-2.902-0.465h-1.999v22.313v6.051v58.904
		h-37.94c-0.029,5.87-0.213,11.99-0.557,18.243c-0.426,7.695-6.79,13.723-14.495,13.723c-0.257,0-0.509-0.006-0.765-0.02
		c-0.123-0.008-0.238-0.027-0.359-0.037v91.401c0,8.267,6.699,14.964,14.963,14.964s14.963-6.697,14.963-14.964V177.551h5.613
		v109.094c0,8.267,6.699,14.964,14.963,14.964c8.265,0,14.964-6.697,14.964-14.964v-182.95c0.445,0.677,0.896,1.391,1.356,2.193
		c4.894,8.679,9.903,25.544,9.877,56.005c0.003,5.645-0.168,11.75-0.529,18.354c-0.295,5.337,3.795,9.905,9.137,10.2
		c0.18,0.01,0.359,0.016,0.537,0.016c5.105,0,9.378-3.994,9.662-9.152c0.382-6.933,0.559-13.392,0.561-19.417
		c-0.036-38.286-7.144-59.394-16.412-71.707C384.987,84.079,379.779,80.4,375.305,78.454z"/>
	<path d="M315.449,40.745c0,15.04,12.193,27.233,27.232,27.233c15.041,0,27.232-12.193,27.232-27.233c0-1.326-0.1-2.627-0.282-3.903
		h-53.899C315.548,38.117,315.449,39.418,315.449,40.745z"/>
	<path d="M314.201,27.116c-2.018,0-3.653,1.637-3.653,3.653c0,2.019,1.636,3.652,3.653,3.652h0.486h55.99h0.486
		c2.017,0,3.652-1.634,3.652-3.652c0-2.016-1.636-3.653-3.652-3.653h-0.506c-0.021-0.815-0.074-1.624-0.164-2.42
		c-0.93-8.293-5.478-15.491-12.033-19.973v2.234c0,1.595-1.293,2.892-2.891,2.892c-1.597,0-2.891-1.295-2.891-2.892v-5.26
		c-2.245-0.859-4.627-1.442-7.108-1.697v6.957c0,1.595-1.294,2.892-2.892,2.892c-1.595,0-2.889-1.295-2.889-2.892V0
		c-2.481,0.255-4.863,0.839-7.108,1.698v5.259c0,1.595-1.292,2.892-2.892,2.892c-1.596,0-2.889-1.295-2.889-2.892V4.723
		c-6.557,4.483-11.106,11.68-12.035,19.973c-0.09,0.796-0.141,1.605-0.163,2.42H314.201z"/>
	<path d="M194.617,98.379v6.051v10.862c1.493-5.906,3.333-11.264,5.531-16.101c3.506-7.796,7.69-13.319,11.711-17.241
		c-2.065-1.506-4.101-2.669-6.002-3.496c-2.421-1.062-4.58-1.623-6.337-1.923c-0.915-0.297-1.889-0.465-2.902-0.465h-2v22.313
		H194.617z"/>
	<rect x="159.518" y="76.067" width="27.434" height="22.312"/>
	<path d="M204.839,195.3c-7.696,0-14.062-6.023-14.494-13.714c-0.353-6.276-0.534-12.401-0.562-18.252h-37.932V104.43v-6.051V76.067
		h-2c-1.011,0-1.982,0.166-2.895,0.462c-1.76,0.299-3.923,0.86-6.348,1.924c-6.771,2.9-14.949,9.783-20.777,22.74
		c-5.896,12.981-9.924,31.945-9.94,60.7c0,6.027,0.178,12.488,0.565,19.421c0.288,5.155,4.56,9.147,9.659,9.147
		c0.18,0,0.364-0.006,0.547-0.017c5.339-0.298,9.429-4.868,9.131-10.207c-0.368-6.601-0.537-12.703-0.534-18.345
		c-0.034-33.359,5.981-50.304,11.242-58.271v183.022c0,8.267,6.699,14.964,14.963,14.964s14.963-6.697,14.963-14.964V177.551h5.612
		v109.094c0,8.267,6.699,14.964,14.963,14.964s14.963-6.697,14.963-14.964v-91.397c-0.105,0.008-0.207,0.026-0.312,0.033
		C205.353,195.294,205.092,195.3,204.839,195.3z"/>
	<path d="M146.001,40.745c0,15.04,12.194,27.233,27.233,27.233c15.041,0,27.232-12.193,27.232-27.233
		c0-1.326-0.099-2.627-0.282-3.903h-53.901C146.101,38.117,146.001,39.418,146.001,40.745z"/>
	<path d="M145.259,27.116h-0.506c-2.017,0-3.653,1.637-3.653,3.653c0,2.019,1.636,3.652,3.653,3.652h0.486h55.99h0.487
		c2.016,0,3.653-1.634,3.653-3.652c0-2.016-1.637-3.653-3.653-3.653h-0.506c-0.022-0.815-0.074-1.624-0.164-2.42
		c-0.93-8.293-5.478-15.491-12.034-19.973v2.234c0,1.595-1.293,2.892-2.891,2.892c-1.596,0-2.89-1.295-2.89-2.892v-5.26
		c-2.245-0.859-4.627-1.442-7.107-1.697v6.957c0,1.595-1.294,2.892-2.892,2.892c-1.595,0-2.889-1.295-2.889-2.892V0
		c-2.481,0.255-4.863,0.839-7.108,1.698v5.259c0,1.595-1.292,2.892-2.892,2.892c-1.595,0-2.889-1.295-2.889-2.892V4.723
		c-6.557,4.483-11.106,11.68-12.035,19.973C145.332,25.493,145.28,26.301,145.259,27.116z"/>
	<rect x="244.242" y="76.067" width="27.434" height="22.312"/>
	<path d="M290.692,103.694c0.445,0.677,0.896,1.391,1.356,2.193c4.894,8.679,9.903,25.544,9.878,56.005
		c0.003,5.645-0.169,11.75-0.53,18.354c-0.295,5.337,3.796,9.905,9.137,10.2c0.18,0.01,0.359,0.016,0.537,0.016
		c5.105,0,9.378-3.994,9.662-9.152c0.382-6.933,0.559-13.392,0.561-19.417c-0.036-38.286-7.143-59.394-16.412-71.707
		c-4.618-6.107-9.826-9.786-14.301-11.731c-2.421-1.061-4.58-1.623-6.338-1.923c-0.915-0.298-1.889-0.465-2.902-0.465h-2V98.38
		v6.052v58.903h-42.763V104.43v-6.051V76.067h-1.999c-1.011,0-1.983,0.166-2.896,0.462c-1.76,0.299-3.922,0.86-6.348,1.924
		c-6.771,2.9-14.949,9.783-20.776,22.74c-5.897,12.982-9.925,31.946-9.942,60.7c0,6.027,0.177,12.488,0.565,19.421
		c0.288,5.155,4.56,9.147,9.659,9.147c0.18,0,0.364-0.006,0.547-0.017c5.338-0.298,9.428-4.868,9.13-10.207
		c-0.368-6.601-0.537-12.703-0.534-18.345c-0.034-33.359,5.981-50.304,11.242-58.271v183.022c0,8.267,6.699,14.964,14.963,14.964
		s14.963-6.697,14.963-14.964V177.551h5.612v109.094c0,8.267,6.699,14.964,14.964,14.964s14.964-6.697,14.964-14.964
		L290.692,103.694L290.692,103.694z"/>
	<path d="M230.725,40.745c0,15.04,12.194,27.233,27.232,27.233c15.041,0,27.232-12.193,27.232-27.233
		c0-1.326-0.099-2.627-0.281-3.903h-53.9C230.824,38.117,230.725,39.418,230.725,40.745z"/>
	<path d="M229.477,27.116c-2.017,0-3.653,1.637-3.653,3.653c0,2.019,1.636,3.652,3.653,3.652h0.486h55.99h0.487
		c2.017,0,3.653-1.634,3.653-3.652c0-2.016-1.637-3.653-3.653-3.653h-0.506c-0.022-0.815-0.073-1.624-0.163-2.42
		c-0.93-8.293-5.479-15.491-12.035-19.973v2.234c0,1.595-1.293,2.892-2.891,2.892c-1.596,0-2.89-1.295-2.89-2.892v-5.26
		c-2.245-0.859-4.627-1.442-7.108-1.697v6.957c0,1.595-1.294,2.892-2.892,2.892c-1.595,0-2.889-1.295-2.889-2.892V0
		c-2.481,0.255-4.863,0.839-7.108,1.698v5.259c0,1.595-1.293,2.892-2.892,2.892c-1.595,0-2.889-1.295-2.889-2.892V4.723
		c-6.556,4.483-11.106,11.68-12.034,19.973c-0.09,0.796-0.142,1.605-0.164,2.42H229.477z"/>
</g>
</svg>
