<?xml version="1.0" encoding="utf-8"?>
<!-- Generator: Adobe Illustrator 16.0.4, SVG Export Plug-In . SVG Version: 6.00 Build 0)  -->
<!DOCTYPE svg PUBLIC "-//W3C//DTD SVG 1.1//EN" "http://www.w3.org/Graphics/SVG/1.1/DTD/svg11.dtd">
<svg version="1.1" id="Layer_1" xmlns="http://www.w3.org/2000/svg" xmlns:xlink="http://www.w3.org/1999/xlink" x="0px" y="0px"
	 width="515.91px" height="377.01px" viewBox="0 0 515.91 377.01" enable-background="new 0 0 515.91 377.01" xml:space="preserve">
<path d="M298.865,180.775c0-18.326-17.064-33.319-38.51-34.393v-50.86c10.979,0.651,20.79,5.709,25.969,13.624
	c1.366,2.093,4.18,2.678,6.262,1.309c2.09-1.366,2.678-4.171,1.309-6.261c-6.819-10.42-19.529-17.029-33.539-17.71V62.454
	c0-2.498-2.026-4.524-4.524-4.524c-2.497,0-4.524,2.027-4.524,4.524v24.394c-19.405,2.702-34.266,16.899-34.266,33.994
	s14.863,31.283,34.266,33.985v50.788c-9.214-1.56-17.219-6.268-21.713-13.15c-1.369-2.09-4.171-2.679-6.261-1.315
	c-2.09,1.367-2.681,4.172-1.315,6.262c6.117,9.365,16.989,15.669,29.289,17.361v24.388c0,2.497,2.027,4.524,4.524,4.524
	c2.498,0,4.524-2.027,4.524-4.524v-23.993C281.801,214.091,298.865,199.101,298.865,180.775z M226.093,120.839
	c0-12.203,10.828-22.418,25.217-24.877v49.744C236.918,143.246,226.093,133.036,226.093,120.839z M260.359,206.122v-50.697
	c16.452,1.001,29.461,11.974,29.461,25.347C289.82,194.146,276.812,205.12,260.359,206.122z"/>
</svg>
