<?xml version="1.0" encoding="utf-8"?>
<!-- Generator: Adobe Illustrator 16.0.4, SVG Export Plug-In . SVG Version: 6.00 Build 0)  -->
<!DOCTYPE svg PUBLIC "-//W3C//DTD SVG 1.1//EN" "http://www.w3.org/Graphics/SVG/1.1/DTD/svg11.dtd">
<svg version="1.1" id="Layer_1" xmlns="http://www.w3.org/2000/svg" xmlns:xlink="http://www.w3.org/1999/xlink" x="0px" y="0px"
	 width="515.91px" height="377.01px" viewBox="0 0 515.91 377.01" enable-background="new 0 0 515.91 377.01" xml:space="preserve">
<g>
	<path d="M321.896,135.422V74.497c0-35.288-28.653-64.242-63.941-64.242s-63.941,28.652-63.941,63.94v17.494
		c0,9.35,7.842,17.191,17.192,17.191c9.35,0,17.191-7.842,17.191-17.191V74.195c0-16.287,13.271-29.859,29.859-29.859
		c16.589,0,29.858,13.271,29.858,29.859v39.511c-9.35-3.317-19.303-5.127-29.858-5.127c-50.369,0-91.086,41.019-91.086,91.086
		c-0.301,50.67,40.416,91.688,90.784,91.688c50.369,0,91.086-41.018,91.086-91.387C349.041,174.933,338.786,152.01,321.896,135.422z
		 M174.711,199.966c0-45.844,37.399-83.244,83.244-83.244c45.844,0,83.244,37.399,83.244,83.244c0,45.845-37.4,83.244-83.244,83.244
		C212.111,283.21,174.711,246.112,174.711,199.966z M257.955,36.796c-20.811,0-37.701,16.89-37.701,37.701V91.99
		c0,5.127-4.222,9.35-9.35,9.35s-9.35-4.223-9.35-9.35V74.497c0-31.065,25.034-56.099,56.099-56.099s56.099,25.034,56.099,56.099
		v53.988c-5.73-4.524-11.762-8.144-18.397-11.16V74.497C295.656,53.686,278.766,36.796,257.955,36.796z"/>
	<path d="M257.955,153.519c-15.985,0-28.653,12.969-28.653,28.652c0,8.747,4.223,17.191,11.16,22.621v24.43
		c0,9.652,7.842,17.795,17.795,17.795s17.795-7.842,17.795-17.795v-24.43c6.937-5.43,11.159-13.874,11.159-22.621
		C286.607,166.186,273.94,153.519,257.955,153.519z M267.606,200.569v28.652c0,5.43-4.524,9.652-9.651,9.652
		c-5.429,0-9.651-4.525-9.651-9.652v-28.652l-1.81-1.207c-5.73-3.92-9.35-10.254-9.35-17.191c0-11.461,9.35-20.811,20.811-20.811
		s20.811,9.35,20.811,20.811c0,6.938-3.317,13.572-9.35,17.191L267.606,200.569z"/>
</g>
</svg>
