<?xml version="1.0" encoding="utf-8"?>
<!-- Generator: Adobe Illustrator 16.0.4, SVG Export Plug-In . SVG Version: 6.00 Build 0)  -->
<!DOCTYPE svg PUBLIC "-//W3C//DTD SVG 1.1//EN" "http://www.w3.org/Graphics/SVG/1.1/DTD/svg11.dtd">
<svg version="1.1" id="Layer_1" xmlns="http://www.w3.org/2000/svg" xmlns:xlink="http://www.w3.org/1999/xlink" x="0px" y="0px"
	 width="515.91px" height="377.01px" viewBox="0 0 515.91 377.01" enable-background="new 0 0 515.91 377.01" xml:space="preserve">
<g>
	<path d="M257.955,266.923c29.859,0,59.416-11.461,82.037-34.082c45.241-45.241,45.241-118.833,0-164.074l0,0
		c-45.241-45.241-118.833-45.241-164.074,0c-45.241,45.241-45.241,118.833,0,164.074
		C198.539,255.462,228.096,266.923,257.955,266.923z M186.474,79.323c19.604-19.604,45.542-29.558,71.481-29.558
		s51.877,9.953,71.48,29.558c39.512,39.511,39.512,103.452,0,142.962c-39.51,39.511-103.451,39.511-142.961,0
		S146.963,118.833,186.474,79.323z"/>
	<path d="M217.238,203.585c2.111,0,3.921-0.904,5.429-2.412l39.209-42.527c1.206-1.508,2.111-3.317,2.111-5.127V96.515
		c0-4.223-3.317-7.541-7.54-7.541s-7.541,3.318-7.541,7.541v54.289l-37.399,40.114c-2.714,3.016-2.714,7.842,0.302,10.556
		C213.317,202.981,215.428,203.585,217.238,203.585z"/>
</g>
</svg>
